$MeshFormat
4.1 0 8
$EndMeshFormat
$Entities
4 4 1 0
1 -0.05 -0.875 0 0 
2 0.05 -0.875 0 0 
3 0.05 0 0 0 
4 -0.05 0 0 0 
1 -0.05 -0.875 0 0.05 -0.875 0 1 1 2 1 -2 
2 0.05 -0.875 0 0.05 0 0 1 2 2 2 -3 
3 -0.05 0 0 0.05 0 0 1 3 2 3 -4 
4 -0.05 -0.875 0 -0.05 0 0 1 4 2 4 -1 
1 -0.05 -0.875 0 0.05 0 0 1 1 4 1 2 3 4 
$EndEntities
$Nodes
5 1163 1 1163
1 1 0 11
1
2
3
4
5
6
7
8
9
10
11
-0.05 -0.875 0
0.05 -0.875 0
-0.03000000000004607 -0.875 0
-0.0100000000001057 -0.875 0
0.009999999999893226 -0.875 0
0.02999999999994685 -0.875 0
-0.04000000000002304 -0.875 0
-0.02000000000007588 -0.875 0
-1.062370677540336e-13 -0.875 0
0.01999999999992004 -0.875 0
0.03999999999997342 -0.875 0
1 2 0 88
12
13
14
15
16
17
18
19
20
21
22
23
24
25
26
27
28
29
30
31
32
33
34
35
36
37
38
39
40
41
42
43
44
45
46
47
48
49
50
51
52
53
54
55
56
57
58
59
60
61
62
63
64
65
66
67
68
69
70
71
72
73
74
75
76
77
78
79
80
81
82
83
84
85
86
87
88
89
90
91
92
93
94
95
96
97
98
99
0.05 -0.6463068181819257 0
0.05 -0.4474431818183776 0
0.05 -0.4673295454547373 0
0.05 -0.4872159090910916 0
0.05 -0.5071022727274458 0
0.05 -0.5269886363638001 0
0.05 -0.5468750000001543 0
0.05 -0.5667613636365086 0
0.05 -0.586647727272863 0
0.05 -0.6065340909092172 0
0.05 -0.6264204545455715 0
0.05 -0.4275568181819602 0
0.05 -0.66619318181828 0
0.05 -0.6860795454546343 0
0.05 -0.7059659090909886 0
0.05 -0.7258522727273429 0
0.05 -0.7457386363636971 0
0.05 -0.7656250000000514 0
0.05 -0.7855113636364057 0
0.05 -0.8053977272727599 0
0.05 -0.8252840909091143 0
0.05 -0.8451704545454686 0
0.05 -0.2088068181817199 0
0.05 -0.009943181818177105 0
0.05 -0.02982954545453143 0
0.05 -0.04971590909088569 0
0.05 -0.0696022727272399 0
0.05 -0.08948863636359417 0
0.05 -0.1093749999999485 0
0.05 -0.1292613636363028 0
0.05 -0.1491477272726571 0
0.05 -0.1690340909090113 0
0.05 -0.1889204545453656 0
0.05 -0.8650568181818228 0
0.05 -0.2286931818180741 0
0.05 -0.2485795454544283 0
0.05 -0.2684659090907827 0
0.05 -0.2883522727271369 0
0.05 -0.3082386363634912 0
0.05 -0.3281249999998455 0
0.05 -0.3480113636361998 0
0.05 -0.3678977272725708 0
0.05 -0.3877840909090049 0
0.05 -0.4076704545454852 0
0.05 -0.6562500000001028 0
0.05 -0.4573863636365602 0
0.05 -0.4772727272729144 0
0.05 -0.4971590909092687 0
0.05 -0.5170454545456229 0
0.05 -0.5369318181819772 0
0.05 -0.5568181818183315 0
0.05 -0.5767045454546857 0
0.05 -0.5965909090910401 0
0.05 -0.6164772727273944 0
0.05 -0.6363636363637486 0
0.05 -0.437500000000195 0
0.05 -0.6761363636364572 0
0.05 -0.6960227272728114 0
0.05 -0.7159090909091657 0
0.05 -0.73579545454552 0
0.05 -0.7556818181818743 0
0.05 -0.7755681818182285 0
0.05 -0.7954545454545828 0
0.05 -0.8153409090909371 0
0.05 -0.8352272727272914 0
0.05 -0.8551136363636457 0
0.05 -0.218749999999897 0
0.05 -0.01988636363635421 0
0.05 -0.03977272727270864 0
0.05 -0.05965909090906274 0
0.05 -0.07954545454541706 0
0.05 -0.09943181818177127 0
0.05 -0.1193181818181257 0
0.05 -0.1392045454544799 0
0.05 -0.1590909090908342 0
0.05 -0.1789772727271884 0
0.05 -0.1988636363635428 0
0.05 0 0
0.05 -0.2386363636362512 0
0.05 -0.2585227272726055 0
0.05 -0.2784090909089598 0
0.05 -0.2982954545453141 0
0.05 -0.3181818181816684 0
0.05 -0.3380681818180226 0
0.05 -0.3579545454543769 0
0.05 -0.3778409090907647 0
0.05 -0.3977272727272451 0
0.05 -0.4176136363637254 0
1 3 0 10
100
101
102
103
104
105
106
107
108
109
-0.05 0 0
0.03000000000004607 0 0
0.0100000000001057 0 0
-0.009999999999893226 0 0
-0.02999999999994685 0 0
0.04000000000002304 0 0
0.02000000000007588 0 0
1.062370677540336e-13 0 0
-0.01999999999992004 0 0
-0.03999999999997342 0 0
1 4 0 87
110
111
112
113
114
115
116
117
118
119
120
121
122
123
124
125
126
127
128
129
130
131
132
133
134
135
136
137
138
139
140
141
142
143
144
145
146
147
148
149
150
151
152
153
154
155
156
157
158
159
160
161
162
163
164
165
166
167
168
169
170
171
172
173
174
175
176
177
178
179
180
181
182
183
184
185
186
187
188
189
190
191
192
193
194
195
196
-0.05 -0.2286931818180857 0
-0.05 -0.4275568181816304 0
-0.05 -0.407670454545271 0
-0.05 -0.3877840909089171 0
-0.05 -0.3678977272725631 0
-0.05 -0.3480113636362092 0
-0.05 -0.3281249999998553 0
-0.05 -0.3082386363635015 0
-0.05 -0.2883522727271475 0
-0.05 -0.2684659090907936 0
-0.05 -0.2485795454544397 0
-0.05 -0.4474431818180474 0
-0.05 -0.2088068181817319 0
-0.05 -0.1889204545453779 0
-0.05 -0.169034090909024 0
-0.05 -0.1491477272726702 0
-0.05 -0.1292613636363162 0
-0.05 -0.1093749999999623 0
-0.05 -0.08948863636360835 0
-0.05 -0.0696022727272525 0
-0.05 -0.04971590909089449 0
-0.05 -0.02982954545453694 0
-0.05 -0.6661931818182838 0
-0.05 -0.865056818181823 0
-0.05 -0.8451704545454692 0
-0.05 -0.8252840909091153 0
-0.05 -0.8053977272727613 0
-0.05 -0.7855113636364073 0
-0.05 -0.7656250000000535 0
-0.05 -0.7457386363636995 0
-0.05 -0.7258522727273455 0
-0.05 -0.7059659090909917 0
-0.05 -0.6860795454546378 0
-0.05 -0.009943181818179265 0
-0.05 -0.6463068181819298 0
-0.05 -0.626420454545576 0
-0.05 -0.6065340909092221 0
-0.05 -0.5866477272728682 0
-0.05 -0.5667613636365142 0
-0.05 -0.5468750000001603 0
-0.05 -0.5269886363638063 0
-0.05 -0.5071022727274357 0
-0.05 -0.487215909091002 0
-0.05 -0.467329545454522 0
-0.05 -0.2386363636362627 0
-0.05 -0.4374999999998128 0
-0.05 -0.4176136363634479 0
-0.05 -0.3977272727270941 0
-0.05 -0.3778409090907401 0
-0.05 -0.3579545454543862 0
-0.05 -0.3380681818180323 0
-0.05 -0.3181818181816784 0
-0.05 -0.2982954545453245 0
-0.05 -0.2784090909089705 0
-0.05 -0.2585227272726167 0
-0.05 -0.457386363636282 0
-0.05 -0.2187499999999088 0
-0.05 -0.1988636363635549 0
-0.05 -0.178977272727201 0
-0.05 -0.1590909090908471 0
-0.05 -0.1392045454544932 0
-0.05 -0.1193181818181392 0
-0.05 -0.0994318181817853 0
-0.05 -0.07954545454543138 0
-0.05 -0.05965909090907361 0
-0.05 -0.03977272727271536 0
-0.05 -0.6562500000001068 0
-0.05 -0.8551136363636461 0
-0.05 -0.8352272727272922 0
-0.05 -0.8153409090909381 0
-0.05 -0.7954545454545843 0
-0.05 -0.7755681818182304 0
-0.05 -0.7556818181818765 0
-0.05 -0.7357954545455225 0
-0.05 -0.7159090909091687 0
-0.05 -0.6960227272728147 0
-0.05 -0.6761363636364608 0
-0.05 -0.01988636363635853 0
-0.05 -0.6363636363637529 0
-0.05 -0.6164772727273991 0
-0.05 -0.5965909090910452 0
-0.05 -0.5767045454546912 0
-0.05 -0.5568181818183372 0
-0.05 -0.5369318181819833 0
-0.05 -0.5170454545456294 0
-0.05 -0.497159090909242 0
-0.05 -0.477272727272762 0
2 1 0 967
197
198
199
200
201
202
203
204
205
206
207
208
209
210
211
212
213
214
215
216
217
218
219
220
221
222
223
224
225
226
227
228
229
230
231
232
233
234
235
236
237
238
239
240
241
242
243
244
245
246
247
248
249
250
251
252
253
254
255
256
257
258
259
260
261
262
263
264
265
266
267
268
269
270
271
272
273
274
275
276
277
278
279
280
281
282
283
284
285
286
287
288
289
290
291
292
293
294
295
296
297
298
299
300
301
302
303
304
305
306
307
308
309
310
311
312
313
314
315
316
317
318
319
320
321
322
323
324
325
326
327
328
329
330
331
332
333
334
335
336
337
338
339
340
341
342
343
344
345
346
347
348
349
350
351
352
353
354
355
356
357
358
359
360
361
362
363
364
365
366
367
368
369
370
371
372
373
374
375
376
377
378
379
380
381
382
383
384
385
386
387
388
389
390
391
392
393
394
395
396
397
398
399
400
401
402
403
404
405
406
407
408
409
410
411
412
413
414
415
416
417
418
419
420
421
422
423
424
425
426
427
428
429
430
431
432
433
434
435
436
437
438
439
440
441
442
443
444
445
446
447
448
449
450
451
452
453
454
455
456
457
458
459
460
461
462
463
464
465
466
467
468
469
470
471
472
473
474
475
476
477
478
479
480
481
482
483
484
485
486
487
488
489
490
491
492
493
494
495
496
497
498
499
500
501
502
503
504
505
506
507
508
509
510
511
512
513
514
515
516
517
518
519
520
521
522
523
524
525
526
527
528
529
530
531
532
533
534
535
536
537
538
539
540
541
542
543
544
545
546
547
548
549
550
551
552
553
554
555
556
557
558
559
560
561
562
563
564
565
566
567
568
569
570
571
572
573
574
575
576
577
578
579
580
581
582
583
584
585
586
587
588
589
590
591
592
593
594
595
596
597
598
599
600
601
602
603
604
605
606
607
608
609
610
611
612
613
614
615
616
617
618
619
620
621
622
623
624
625
626
627
628
629
630
631
632
633
634
635
636
637
638
639
640
641
642
643
644
645
646
647
648
649
650
651
652
653
654
655
656
657
658
659
660
661
662
663
664
665
666
667
668
669
670
671
672
673
674
675
676
677
678
679
680
681
682
683
684
685
686
687
688
689
690
691
692
693
694
695
696
697
698
699
700
701
702
703
704
705
706
707
708
709
710
711
712
713
714
715
716
717
718
719
720
721
722
723
724
725
726
727
728
729
730
731
732
733
734
735
736
737
738
739
740
741
742
743
744
745
746
747
748
749
750
751
752
753
754
755
756
757
758
759
760
761
762
763
764
765
766
767
768
769
770
771
772
773
774
775
776
777
778
779
780
781
782
783
784
785
786
787
788
789
790
791
792
793
794
795
796
797
798
799
800
801
802
803
804
805
806
807
808
809
810
811
812
813
814
815
816
817
818
819
820
821
822
823
824
825
826
827
828
829
830
831
832
833
834
835
836
837
838
839
840
841
842
843
844
845
846
847
848
849
850
851
852
853
854
855
856
857
858
859
860
861
862
863
864
865
866
867
868
869
870
871
872
873
874
875
876
877
878
879
880
881
882
883
884
885
886
887
888
889
890
891
892
893
894
895
896
897
898
899
900
901
902
903
904
905
906
907
908
909
910
911
912
913
914
915
916
917
918
919
920
921
922
923
924
925
926
927
928
929
930
931
932
933
934
935
936
937
938
939
940
941
942
943
944
945
946
947
948
949
950
951
952
953
954
955
956
957
958
959
960
961
962
963
964
965
966
967
968
969
970
971
972
973
974
975
976
977
978
979
980
981
982
983
984
985
986
987
988
989
990
991
992
993
994
995
996
997
998
999
1000
1001
1002
1003
1004
1005
1006
1007
1008
1009
1010
1011
1012
1013
1014
1015
1016
1017
1018
1019
1020
1021
1022
1023
1024
1025
1026
1027
1028
1029
1030
1031
1032
1033
1034
1035
1036
1037
1038
1039
1040
1041
1042
1043
1044
1045
1046
1047
1048
1049
1050
1051
1052
1053
1054
1055
1056
1057
1058
1059
1060
1061
1062
1063
1064
1065
1066
1067
1068
1069
1070
1071
1072
1073
1074
1075
1076
1077
1078
1079
1080
1081
1082
1083
1084
1085
1086
1087
1088
1089
1090
1091
1092
1093
1094
1095
1096
1097
1098
1099
1100
1101
1102
1103
1104
1105
1106
1107
1108
1109
1110
1111
1112
1113
1114
1115
1116
1117
1118
1119
1120
1121
1122
1123
1124
1125
1126
1127
1128
1129
1130
1131
1132
1133
1134
1135
1136
1137
1138
1139
1140
1141
1142
1143
1144
1145
1146
1147
1148
1149
1150
1151
1152
1153
1154
1155
1156
1157
1158
1159
1160
1161
1162
1163
-0.0327779039019773 -0.3678977272725524 0
0.03277790390202218 -0.5071022727274456 0
-0.0325114289807012 -0.8054626974669603 0
-0.03143294006660488 -0.767895445611024 0
-0.03232271762060019 -0.7056392631878863 0
-0.03277790390196911 -0.6661931818182794 0
-0.03277790390197394 -0.6264204545455716 0
-0.03277790390196795 -0.5468750000001508 0
-0.03277790390197871 -0.5866477272728634 0
-0.03277790390197224 -0.3281249999998404 0
-0.03277790390196942 -0.288352272727132 0
-0.03277790390196678 -0.2485795454544241 0
-0.03277790390196431 -0.2088068181817162 0
-0.03277790390203152 -0.169034090909024 0
-0.03340875846063704 -0.1292613636363162 0
-0.03314459752385998 -0.09012376834744243 0
-0.03277790390197484 -0.4076704545452836 0
0.03277790390202218 -0.4673295454547372 0
-0.000172193296344361 -0.01721344677046689 0
0.03251431012126892 -0.06953909026906835 0
0.03251593775480868 -0.7465539551071128 0
0.03211701872728179 -0.8269674999236108 0
0.03314395738006735 -0.7848773404141443 0
0.0322114988590772 -0.6885508579940645 0
0.03277790390202218 -0.6463068181819256 0
0.03277790390202218 -0.5667613636365083 0
0.03277790390202212 -0.6065340909092172 0
0.03277790390202212 -0.3480113636361997 0
0.03277790390202218 -0.3082386363634912 0
0.03277790390202208 -0.2684659090907828 0
0.03277790390202218 -0.2286931818180741 0
0.03318741706198286 -0.1886921729434985 0
0.03385305440230257 -0.149130090107309 0
0.03146547498742443 -0.1072871590934108 0
-0.03277790390196389 -0.4474431818180783 0
0.03277790390195302 -0.3877840909090049 0
-0.03277790390195648 -0.4872159090909999 0
0.03277790390196746 -0.4275568181819601 0
0.0001731141826090028 -0.8577882232699655 0
-0.03211702403699055 -0.04803622947052508 0
-0.03189283606219717 -0.8432994694931635 0
0.03189533520594998 -0.03170193620893889 0
0.01989366731955571 -0.858252784357002 0
0.01316988082446744 -0.8388539685510206 0
-0.009950585969705302 -0.8403875442275807 0
3.173477026670516e-05 -0.8231383130767107 0
-0.02005622603602396 -0.8236861438849215 0
-0.009915397771975773 -0.8058922051692938 0
0.009987614160122863 -0.8059043206104295 0
0.0001274155483704947 -0.7889614769372815 0
-0.02017331740153886 -0.7875075869219224 0
-0.010263528576025 -0.7713223327105669 0
-0.01689023284735715 -0.7519442651837461 0
0.002427039278095754 -0.7557188398731527 0
-0.004106010026820968 -0.7367718782115201 0
-0.02018730286266176 -0.7351001697031876 0
-0.0136400878848457 -0.7172002871846108 0
0.008867431384416197 -0.7218652125663172 0
0.002805112011694124 -0.7031021545877943 0
0.0213305994320386 -0.7065121923948483 0
0.03075222846311466 -0.7246750198354879 0
-0.01989440664631354 -0.01674821081465521 0
-0.01316822785383247 -0.03615179349588377 0
0.00995757670312809 -0.03461650001804833 0
-2.730120689072565e-05 -0.05187433718968049 0
0.02006352740523425 -0.05132087540045435 0
0.009926005378023302 -0.06912351295377878 0
-0.009981667581234897 -0.06911458406909286 0
-0.0001169779383635428 -0.08605579847384891 0
0.02018823202241413 -0.08753118215798039 0
0.01028627676211865 -0.1036928957941813 0
0.01636775008385524 -0.1227971953374993 0
-0.002407699304942479 -0.1192915942199243 0
0.004077833350781948 -0.1381514368187851 0
-0.03277790390195791 -0.4673295454545402 0
-0.01555580780394408 -0.4573863636363086 0
-0.01555580780394423 -0.437499999999884 0
0.001666288294066481 -0.4474431818180819 0
0.001666288294077197 -0.4275568181816886 0
0.001666288294067576 -0.4673295454544742 0
-0.0327779039019614 -0.5071022727274103 0
-0.01555580780394874 -0.497159090909206 0
-0.01555580780394497 -0.5170454545455905 0
0.001666288294051244 -0.507102272727404 0
0.001388223628420961 -0.5269886363637721 0
0.001666288294058614 -0.4872159090910298 0
-0.0156021519148815 -0.5369318181819593 0
0.001334155498994076 -0.5468750000001342 0
0.01738329350990249 -0.5369318181819573 0
-0.01561888728828945 -0.5568181818183213 0
0.001504468194481991 -0.5667613636364937 0
-0.01559329106794253 -0.5767045454546786 0
0.001513058739035183 -0.5866477272728499 0
-0.01558759327379022 -0.5965909090910336 0
0.001513678634340996 -0.6065340909092043 0
-0.01558654032554398 -0.6164772727273881 0
0.001513751210164081 -0.6264204545455583 0
-0.0155863527381967 -0.6363636363637419 0
0.001513762497271249 -0.6463068181819115 0
-0.01558631959245107 -0.6562500000000958 0
0.001299254193049175 -0.6660750224282956 0
-0.01577503970880948 -0.6758850780004471 0
-0.01555580780394229 -0.4176136363634845 0
0.001666288294082272 -0.4076704545452953 0
-0.01555580780394801 -0.3977272727271005 0
0.001666288294084562 -0.3877840909089081 0
-0.01555580780394718 -0.3778409090907263 0
0.001666288294084323 -0.367897727272533 0
-0.01555580780394591 -0.3579545454543633 0
0.001666288294083629 -0.3480113636361707 0
-0.01555580780394384 -0.338068181818005 0
0.001666288294085473 -0.3281249999998138 0
-0.01555580780394206 -0.3181818181816496 0
0.001666288294088677 -0.3082386363634588 0
-0.01555580780393953 -0.298295454545295 0
0.001666288294092115 -0.2883522727271045 0
-0.01555580780393716 -0.2784090909089409 0
0.001666288294096013 -0.2684659090907504 0
-0.01555580780393443 -0.2585227272725868 0
0.001666288294099731 -0.2485795454543962 0
-0.01555580780393212 -0.2386363636362328 0
0.001666288294103562 -0.2286931818180422 0
-0.01555580780392945 -0.2187499999998788 0
0.001666288294107235 -0.2088068181816881 0
-0.01555580780386858 -0.1988636363635078 0
0.0009667094595304925 -0.1887573962583088 0
0.03277790390193482 -0.4076704545454475 0
0.0327779039019577 -0.3678977272726023 0
-0.0327856279204593 -0.5269886363637872 0
-0.03277790390196897 -0.4275568181816592 0
-0.01555580780394683 -0.4772727272727598 0
-0.02994283293165802 -0.06909062226861125 0
0.03338106068769651 -0.7657371838281348 0
0.01420357102337767 -0.7740849096535258 0
0.03277790390202208 -0.5866477272728626 0
-0.03278987565774173 -0.5667613636365093 0
0.03310739489156497 -0.6664873856920192 0
0.03277790390202175 -0.2485795454544286 0
0.03315714628968464 -0.1687648228459418 0
0.01525163656870046 -0.1564284244660002 0
-0.03277790390197455 -0.3877840909089161 0
0.03277790390202202 -0.3281249999998456 0
0.03300519312383955 -0.2087929526811187 0
-0.03277790390202149 -0.6860795454546371 0
0.03277790390202255 -0.626420454545571 0
-0.03277790390196796 -0.2684659090907785 0
0.0327779039020223 -0.288352272727137 0
-0.03277790390199395 -0.1889204545453675 0
-0.03290312134830734 -0.1491477272726701 0
-0.01629296258925261 -0.1597683253791627 0
-0.03277790390197322 -0.3480113636361966 0
-0.03355494147086475 -0.1094808553306013 0
-0.01423169958152607 -0.1009926970756708 0
-0.03277790390196544 -0.2286931818180706 0
-0.0327779039020215 -0.6065340909092228 0
-0.03277790390197054 -0.3082386363634866 0
-0.03277790390202154 -0.6463068181819304 0
0.03277790390202221 -0.4872159090910916 0
0.0299431013206267 -0.8059160726297192 0
0.03277790390196899 -0.4474431818183485 0
-0.01607332807290307 -0.1790629990607396 0
-0.01529261349575249 -0.6956012934403205 0
-0.01442825403530696 -0.1383072648782169 0
0.01464292977303933 -0.7401233242344636 0
-0.01951687315607336 -0.8586561462157161 0
0.01951860828331356 -0.01634504044897787 0
0.03339157093350099 -0.8453476695360036 0
-0.03339167852419538 -0.0296537125118415 0
0.03356869456773455 -0.5482446896113169 0
0.03356869456774218 -0.5256189467526199 0
0.01634659846977806 -0.1776075831159862 0
0.0008640286721597213 -0.684689991028559 0
0.01722209609804715 -0.5767045454546854 0
0.01722209609805125 -0.5965909090910408 0
0.01722209609805479 -0.6164772727273943 0
0.01722209609805817 -0.6363636363637474 0
0.01722174614808005 -0.497159090909246 0
0.01719067674118488 -0.6562793407473926 0
0.01722209609805343 -0.3380681818180081 0
0.01722209609805626 -0.3181818181816553 0
0.01722209609805507 -0.2982954545452962 0
0.0172220960980516 -0.2784090909089346 0
0.01722209609805214 -0.2585227272725785 0
0.01722209609803624 -0.3579545454543661 0
0.0172220960980527 -0.2386363636362223 0
0.01722209609805453 -0.218749999999868 0
0.01706571708454879 -0.198567820530078 0
0.01722203777306325 -0.4772727272728605 0
0.01722209609801724 -0.377840909090753 0
0.01722209609800528 -0.3977272727271506 0
0.01722208637718736 -0.4573863636363993 0
0.01722209609800046 -0.4176136363635726 0
0.01722209447787799 -0.4375000000000085 0
0.01722364886514354 -0.6761363636364567 0
0.0172199963982659 -0.5170454545455908 0
0.01721999639825727 -0.5568181818183102 0
-0.0001073218370485354 -0.1691394922137864 0
0.03392014803992328 -0.1294122817857551 0
-0.03445326333917514 -0.7469832169027898 0
-0.01960627057065546 -0.1194667550281459 0
-0.03689209821578446 -0.8246032985326551 0
0.03689463454649063 -0.0503987440120466 0
0.01660099030460194 -0.8212174867933164 0
-0.01660057184444953 -0.05379898209027549 0
0.01943410770340358 -0.7564436425392779 0
-0.03704402456229679 -0.7855113636364077 0
0.03705430282401304 -0.08948863636359415 0
0.01488697756802264 -0.6917983119283445 0
0.01768158598546374 -0.7917280867561677 0
-0.01768505782543389 -0.08328316429477674 0
0.0206940844891127 -0.1391838857030698 0
-0.03425717160746075 -0.7239985334964095 0
-0.0008425848581445471 -0.1532122250025212 0
0.03715881836417571 -0.7062288152269077 0
0.03533288552211401 -0.860363034478362 0
-0.03533362190858461 -0.01463622492724684 0
-0.03543093108699495 -0.8604616403035867 0
0.03543093108699588 -0.01453835969641315 0
0.02264344977587461 -0.8329107342373157 0
0.02328072587898421 -0.8421008190435121 0
0.03275429483039138 -0.8361575847298073 0
-0.02264262594541151 -0.04209401148320442 0
-0.02327995318901393 -0.03290275300386264 0
-0.03275435128059297 -0.03884497099118329 0
0.003939288728588086 -0.1114922450070528 0
-0.00197271140970371 -0.1023427964349261 0
-0.008319699443234276 -0.1101421456477975 0
-0.003918244648964623 -0.7635205862918598 0
0.001970021223676335 -0.7727036211820464 0
0.008315305150736712 -0.7649018747633393 0
0.02435900451594186 -0.8240924933584637 0
0.01488543556453469 -0.8300357276721685 0
-0.02435879794072004 -0.05091760578040028 0
-0.014884399849141 -0.04497538779307964 0
-0.02580312873407187 -0.7777015162664731 0
-0.01521842298878193 -0.7794149598162446 0
-0.02084823432131494 -0.7696088891607955 0
0.02582685350491928 -0.0974091706256956 0
0.01523725439226639 -0.09561203897608084 0
0.02087587587477154 -0.105490027443796 0
-0.02092171101595124 -0.841843506860372 0
-0.01500340600286463 -0.8320368440562511 0
-0.02597453104911056 -0.8334928066890425 0
0.02092645595453903 -0.03315921811349361 0
0.01501055205418117 -0.04296868770925134 0
0.02597943130559212 -0.04151140580469662 0
-0.02298140275272294 -0.7114197751862485 0
-0.03328994461403047 -0.714818898342148 0
-0.02394862974615323 -0.7205994103405102 0
0.005084649411877554 -0.0948743471340151 0
-0.007174338759944806 -0.09352424777475984 0
-0.0144663506902991 -0.7064007903124656 0
-0.02380766555817634 -0.7006202783141033 0
-0.005068056513827252 -0.7801419048239242 0
0.007165493285874082 -0.7815231932954037 0
0.04037611423155733 -0.7202920553723268 0
0.04037611423155733 -0.7302352371905039 0
-0.03423848231445083 -0.7767034046237158 0
-0.02860867098191782 -0.786509475279165 0
0.03425988890571874 -0.09838789772850248 0
0.02862126742321359 -0.08850990926078728 0
-0.04222663166958757 -0.7413893357241561 0
-0.03435521747331795 -0.7354908751995997 0
-0.04212858580373038 -0.7298969940209661 0
-0.02847416212590421 -0.8241447212087882 0
-0.03439246713899081 -0.8339513840129094 0
0.02847908097586244 -0.05085980970625048 0
0.03439498487622031 -0.04105034011049274 0
-0.02732028310091845 -0.7410416933029886 0
-0.02722223723506126 -0.7295493515997986 0
-0.01691369537375373 -0.7261502284438992 0
-0.01357688071169108 -0.7616332989471566 0
-0.02416158645698101 -0.759919855397385 0
0.01332701342298694 -0.1132450455658403 0
0.02391661253563983 -0.1150421772154551 0
-0.02628382750836258 -0.8145744206759409 0
-0.01498581190399987 -0.8147891745271076 0
-0.02121341337633849 -0.8056774513181271 0
0.02628891876325159 -0.06042998283476135 0
0.01499476639162878 -0.06022219417711656 0
0.02122015774964611 -0.06933130161142356 0
0.0008350670229197346 -0.1287215155193547 0
-0.00841797667012472 -0.1287994295490706 0
-0.005175210342262506 -0.138229350848501 0
-0.01504435758675732 -0.7966998960456081 0
-0.02634237319112003 -0.7964851421944413 0
0.01505711870021872 -0.07832734755587958 0
0.02635127107184153 -0.07853513621352437 0
0.04125796887740434 -0.7411747048263164 0
0.03163408310896167 -0.7356144874713003 0
0.01653177407201158 -0.8485533764540113 0
0.02664261912652835 -0.8518002269465028 0
-0.016531317250073 -0.02645000215526949 0
-0.02664304258525446 -0.02320096166324835 0
0.01996535774037478 -0.8059101966200743 0
0.0132943022323624 -0.813560903701873 0
0.02327204581261432 -0.8135667797115178 0
-0.01996225025644646 -0.06910260316885206 0
-0.01329111971284221 -0.06145678307968418 0
-0.02327170238805377 -0.06144480217944337 0
0.04357940918208786 -0.7110689530680367 0
0.03395552341364518 -0.7154519175311977 0
-0.01100698493779897 -0.1193791746240351 0
-0.01701726230298121 -0.1288870099531814 0
-0.02570485460913527 -0.8509778078544398 0
-0.01473372956288933 -0.8495218452216484 0
0.02570697174463177 -0.02402348832895838 0
0.01473809249322082 -0.0254807702335131 0
-0.01691898507609076 -0.1102297260519083 0
0.04178434728386728 -0.5425882538966471 0
0.04178434728387109 -0.5312753824672986 0
0.03356869456773837 -0.5369318181819684 0
0.009664734959741204 -0.1472899306423927 0
0.01797286052890658 -0.147806155084535 0
0.01238595891994732 -0.1386676612609274 0
-0.005417487936575788 -0.7101512208862026 0
-0.006243750742029182 -0.6993517240140574 0
0.01681883936339063 -0.7652642760964019 0
0.01093057349074967 -0.7560812412062152 0
0.0016176242463187 -0.1456818309106532 0
0.007204525855277957 -0.1548203247342607 0
0.0267710491455579 -0.6975315251944564 0
0.02924470889810715 -0.7063705038108781 0
0.03468515861162645 -0.697389836610486 0
0.00490451371982988 -0.07758965571381385 0
0.01003562704202529 -0.08679349031591466 0
-0.004893991111802639 -0.7974268410532876 0
-0.01002295092658418 -0.7882345319296019 0
0.02354923821354992 -0.6901745849612044 0
0.01810878850003062 -0.6991552521615965 0
-0.007231596784630699 -0.7538315525284494 0
0.00698002538945638 -0.1210443947787118 0
0.02381234365304522 -0.7988220796929435 0
0.0138346000727933 -0.7988162036832986 0
-0.02381394537854595 -0.07618689328169399 0
-0.01383336270333439 -0.0761988741819348 0
0.02547599403881852 -0.5425882538966371 0
0.02547599403882234 -0.5312753824672887 0
0.03103006002395424 -0.8164417862766651 0
-0.03102992848432429 -0.05856342586956816 0
-0.0008394853743626072 -0.7462453590423364 0
-0.01049812143708906 -0.7443580716976331 0
0.01022279171731859 -0.1304743160781422 0
0.02476700776588046 -0.1831498780297424 0
0.01670615777716342 -0.1880877018230321 0
0.02512656707326583 -0.1936299967367882 0
-0.03470176359824283 -0.8150329979998077 0
0.03470447233387978 -0.05996891714055748 0
-0.01214665644474136 -0.7359360239573538 0
-0.01853876785500946 -0.7435222174434668 0
0.01003339075108236 -0.8580205038134838 0
0.006671497503538222 -0.848321095910493 0
0.001609647427381069 -0.8396207563893006 0
-0.004888735893548149 -0.8490878837487731 0
-0.01003329997132895 -0.01698082879256105 0
-0.006670210575088415 -0.02668262013317533 0
-0.00160532557535219 -0.03538414675696605 0
0.004892691703391864 -0.02591497339425761 0
0.006600807797367073 -0.8309961408138656 0
-0.004959425599719298 -0.8317629286521457 0
-0.006597764530361597 -0.04401306534278213 0
0.004965137748118682 -0.04324541860386441 0
0.005086557091251115 -0.8663941116349827 0
0.01494683365972447 -0.866626392178501 0
0.01001811309917176 -0.05159760629506742 0
-0.005086096648118794 -0.008606723385233444 0
-0.01494720332310338 -0.008374105407327605 0
0.004949352085566288 -0.06049892507172963 0
-0.004913442908748349 -0.8663941116349827 0
-0.01001224563287863 -0.8234122284808161 0
0.004913903351880669 -0.008606723385233444 0
-0.004941831500854534 -0.8145152591230023 0
0.02494683365975128 -0.866626392178501 0
-0.008873048955833334 -0.7269860826980654 0
-2.783110160579742e-05 -0.06911904851143583 0
-0.005049322759799219 -0.07758519127147089 0
-0.0249472033231302 -0.008374105407327605 0
-0.005004484394062811 -0.06049446062938668 0
0.005009674465194784 -0.8145213168435701 0
3.61081940735454e-05 -0.8058982628898617 0
0.005057514854246679 -0.7974328987738555 0
0.002380710678797614 -0.7293185453889186 0
-0.002386328250214752 -0.719532749875464 0
0.005836271698055161 -0.7124836835770558 0
0.0150990154082274 -0.7141887024805827 0
0.01206785572186636 -0.7048071734913213 0
0.01980982992376543 -0.7232701162009025 0
0.02604141394757663 -0.7155936061151681 0
-0.02416685585291645 -0.203835227272612 0
-0.02416685585293126 -0.1938920454544376 0
-0.03277790390197913 -0.1988636363635418 0
-0.02416685585294688 -0.2137784090907975 0
-0.01555580780389901 -0.2088068181816933 0
-0.03277790390196487 -0.2187499999998934 0
-0.02416685585294744 -0.2237215909089747 0
-0.01555580780393078 -0.2286931818180558 0
-0.02416685585294878 -0.2336647727271517 0
-0.02416685585294945 -0.2436079545453285 0
-0.03277790390196611 -0.2386363636362474 0
-0.02416685585295061 -0.2535511363635055 0
-0.01555580780393328 -0.2485795454544098 0
-0.03277790390196737 -0.2585227272726013 0
-0.0241668558529512 -0.2634943181816827 0
-0.01555580780393579 -0.2684659090907638 0
-0.02416685585295256 -0.2734374999998597 0
-0.02416685585295329 -0.2833806818180364 0
-0.03277790390196869 -0.2784090909089553 0
-0.02416685585295448 -0.2933238636362135 0
-0.01555580780393834 -0.2883522727271179 0
0.001666288294063095 -0.477272727272752 0
-0.006944759754939627 -0.472301136363617 0
-0.006944759754944108 -0.4822443181818948 0
-0.03277790390196998 -0.2982954545453093 0
-0.02416685585295503 -0.3032670454543908 0
-0.01555580780394079 -0.3082386363634723 0
-0.0241668558529563 -0.3132102272725681 0
-0.02418211174721009 -0.6612215909091876 0
-0.0241821117472363 -0.6512784090910131 0
-0.03277790390199532 -0.6562500000001048 0
-0.02416685585295715 -0.323153409090745 0
-0.03277790390197138 -0.3181818181816635 0
-0.02416685585295804 -0.3330965909089227 0
-0.01555580780394295 -0.3281249999998273 0
-0.01558633616532389 -0.6463068181819189 0
-0.02418212832010912 -0.6413352272728361 0
-0.02418212832008532 -0.6313920454546568 0
-0.03277790390199774 -0.636363636363751 0
-0.03277790390197273 -0.3380681818180185 0
-0.02416685585295853 -0.3430397727271008 0
-0.01555580780394487 -0.3480113636361841 0
-0.02416685585295957 -0.3529829545452799 0
-0.02418222211375896 -0.6214488636364799 0
-0.01558644653187034 -0.6264204545455649 0
-0.02418222211378274 -0.6115056818183054 0
-0.03277790390199772 -0.6164772727273973 0
-0.02416685585296161 -0.3629261363634578 0
-0.03277790390197526 -0.3579545454543745 0
-0.02416685585296224 -0.3728693181816394 0
-0.01555580780394654 -0.3678977272725448 0
-0.0155870667996671 -0.6065340909092108 0
-0.02418274858790586 -0.6015625000001282 0
-0.02418274858788447 -0.5916193181819485 0
-0.03277790390200011 -0.5965909090910431 0
-0.02418559748496062 -0.581676136363771 0
-0.01559044217086638 -0.5866477272728561 0
-0.006944759754938252 -0.4623579545453914 0
-0.01555580780394545 -0.4673295454545342 0
-0.02419158336284213 -0.571732954545594 0
-0.03278388977986022 -0.5767045454546864 0
-0.01560608917811599 -0.5667613636365 0
-0.02420438147301559 -0.5617897727274153 0
-0.01555580780394759 -0.3877840909089134 0
-0.02416685585296086 -0.3828124999998212 0
-0.02416685585296128 -0.3927556818180083 0
-0.0241983955951287 -0.551846590909236 0
-0.03278388977985484 -0.55681818181833 0
-0.03277790390197592 -0.3778409090907342 0
-0.02419002790842472 -0.5419034090910551 0
-0.01561051960158548 -0.5468750000001403 0
-0.0327779039019609 -0.4573863636363092 0
-0.024166855852951 -0.4623579545454244 0
-0.02416685585295399 -0.4524147727271934 0
-0.02416685585295237 -0.47230113636365 0
-0.02416685585295857 -0.412642045454384 0
-0.01555580780394515 -0.4076704545452925 0
-0.02416685585296142 -0.4026988636361921 0
-0.04138895195098195 -0.4524147727271801 0
-0.04138895195097896 -0.4623579545454111 0
-0.04139281396022965 -0.5319602272728853 0
-0.04139281396022965 -0.5220170454547084 0
-0.03277790390197469 -0.3977272727270998 0
-0.0413889519509807 -0.5120738636365199 0
-0.03278176591121035 -0.5170454545455987 0
-0.0327779039019719 -0.4176136363634714 0
-0.02416685585295563 -0.4225852272725719 0
-0.0241938899176704 -0.5319602272728733 0
-0.03278176591121362 -0.536931818181969 0
-0.04138895195098195 -0.4424715909089456 0
0.04138895195097885 -0.3629261363634896 0
0.04138895195097885 -0.3728693181816835 0
0.04138895195101106 -0.3529829545452883 0
0.03277790390198991 -0.357954545454401 0
0.04138895195098373 -0.4225852272728428 0
0.04138895195096741 -0.4126420454545864 0
0.03277790390195114 -0.4176136363637038 0
0.04138895195097651 -0.3828124999998848 0
0.04138895195097651 -0.392755681818125 0
-0.04138895195097824 -0.4921875000001209 0
-0.04138895195097824 -0.482244318181881 0
-0.0413889519509807 -0.5021306818183261 0
-0.04138895195098398 -0.541903409091067 0
-0.03277790390195894 -0.4971590909092051 0
0.03277790390195536 -0.3778409090908036 0
-0.03277790390196643 -0.4374999999998688 0
-0.04138895195098449 -0.432528409090736 0
-0.04138895195098449 -0.4225852272725535 0
0.04138895195098373 -0.4325284090910776 0
-0.01555580780394326 -0.4275568181816842 0
-0.0241668558529566 -0.4325284090907716 0
-0.03277790390195719 -0.47727272727277 0
-0.02416685585295165 -0.4822443181818798 0
-0.04138895195097896 -0.4723011363636511 0
-0.01555580780394416 -0.4474431818180963 0
-0.02416685585295406 -0.4424715909089811 0
-0.006944759754945063 -0.4921875000001179 0
-0.01555580780394778 -0.4872159090909829 0
-0.04138895195098742 -0.4126420454543658 0
0.04138895195098449 -0.4424715909092718 0
0.04138895195098449 -0.4524147727274543 0
-0.02416685585295261 -0.4921875000001029 0
-0.02416685585295507 -0.5021306818183081 0
-0.02416685585295318 -0.5120738636365003 0
-0.01555580780394685 -0.5071022727273983 0
0.04138895195096741 -0.4026988636363463 0
0.03277790390194392 -0.3977272727272262 0
-0.006944759754946863 -0.5120738636364972 0
-0.006944759754948748 -0.502130681818305 0
0.0413889519510111 -0.4623579545456487 0
0.03277790390199559 -0.4573863636365428 0
-0.006944759754931724 -0.3927556818180043 0
-0.006944759754931308 -0.3828124999998172 0
0.001666288294084442 -0.3778409090907205 0
-0.006944759754931428 -0.3728693181816297 0
-0.006944759754930793 -0.3629261363634482 0
-0.007083792087762004 -0.5220170454546813 0
0.001527255961236102 -0.517045454545588 0
-0.006944759754930009 -0.4126420454543899 0
-0.006944759754932869 -0.4026988636361979 0
0.001666288294083976 -0.3579545454543518 0
-0.00694475975493114 -0.352982954545267 0
0.001666288294083417 -0.3977272727271017 0
-0.01557897985941323 -0.5269886363637749 0
-0.00710696414323027 -0.5319602272728657 0
-0.007133998207943712 -0.5419034090910468 0
0.001361189563707518 -0.5369318181819531 0
-0.006944759754930105 -0.3430397727270879 0
-0.007142365894647687 -0.5518465909092278 0
-0.006944759754938799 -0.4524147727271952 0
0.001666288294067028 -0.457386363636278 0
0.001666288294054929 -0.4971590909092169 0
-0.006944759754933517 -0.4325284090907863 0
-0.006944759754932547 -0.4225852272725865 0
-0.007057209546903729 -0.5617897727274075 0
0.001419311846738033 -0.556818181818314 0
-0.02417071786220213 -0.5220170454546889 0
0.001666288294084551 -0.3380681818179923 0
-0.006944759754929183 -0.3330965909089094 0
0.03277790390196823 -0.4375000000001543 0
0.009358724504448282 -0.5419034090910457 0
0.009385758569161726 -0.5319602272728647 0
-0.00704441143673027 -0.5717329545455861 0
-0.006944759754928293 -0.3231534090907317 0
-0.007040116164453674 -0.5816761363637643 0
0.001508763466758587 -0.5767045454546718 0
-0.04138895195098398 -0.551846590909244 0
-0.04139493782887087 -0.5617897727274233 0
-0.0411613588103001 -0.7008309952303504 0
-0.03255031076131084 -0.6958594043212617 0
-0.04138895195101075 -0.6910511363637259 0
0.001666288294087075 -0.3181818181816363 0
-0.006944759754926691 -0.3132102272725542 0
-0.04139493782887087 -0.5717329545456002 0
-0.04138895195101075 -0.681107954545549 0
-0.04138895195101075 -0.6115056818183109 0
-0.04138895195101075 -0.601562500000134 0
-0.007037267267377518 -0.5916193181819418 0
-0.04138895195101077 -0.6512784090910186 0
-0.04138895195101077 -0.6413352272728416 0
-0.006944759754925426 -0.3032670454543769 0
-0.04138895195098936 -0.5916193181819542 0
0.0413889519510111 -0.2336647727271627 0
0.03277790390202197 -0.2386363636362513 0
0.04138895195101087 -0.2436079545453399 0
0.04138895195101087 -0.2535511363635171 0
0.001666288294079734 -0.417613636363492 0
0.04125796887740434 -0.7511178866444935 0
0.03294849922125259 -0.7561455694676238 0
0.04169053034384826 -0.7607095010050046 0
-0.04138895195098697 -0.6313920454546622 0
-0.007036957319724612 -0.601562500000119 0
-0.007036430845601492 -0.6115056818182962 0
0.001666288294090396 -0.2982954545452816 0
-0.006944759754923707 -0.2933238636361998 0
0.0413889519510111 -0.6413352272728371 0
0.04138895195101128 -0.6313920454546598 0
0.03277790390202237 -0.6363636363637484 0
0.04138895195101104 -0.2634943181816941 0
0.03277790390202191 -0.2585227272726057 0
0.001513368686688089 -0.5965909090910271 0
0.04073273749371221 -0.103359488637591 0
0.04073273749371221 -0.1133026704557683 0
-0.04138895195098662 -0.3529829545452914 0
-0.04138895195098662 -0.3430397727271144 0
0.0413889519510111 -0.571732954545597 0
0.03277790390202213 -0.5767045454546855 0
0.04138895195101104 -0.5816761363637741 0
0.0413889519510111 -0.3132102272725798 0
0.0327779039020221 -0.3181818181816684 0
0.04138895195101101 -0.323153409090757 0
-0.007036394557689949 -0.6214488636364732 0
-0.007036300764016309 -0.6313920454546501 0
0.04192652720115128 -0.1541104995990716 0
0.0335051003459936 -0.1589474564766254 0
0.04157857314484233 -0.163927865968388 0
0.04125715506063446 -0.06459909058906554 0
0.04125715506063446 -0.0745422724072427 0
-0.04138895195098866 -0.3629261363634693 0
0.04138895195101106 -0.6015625000001286 0
0.04138895195101104 -0.5916193181819513 0
0.0327779039020221 -0.59659090909104 0
0.04138895195101101 -0.3330965909089341 0
-0.04138895195098936 -0.5816761363637772 0
-0.04138895195098471 -0.2833806818180512 0
-0.04138895195098398 -0.2734374999998745 0
0.04159370853099143 -0.1838347228353435 0
0.04159370853099143 -0.1937779046535206 0
0.04192652720115128 -0.1441673177808944 0
-0.006944759754922522 -0.2833806818180227 0
0.0413889519510111 -0.2237215909089856 0
0.04150259656191978 -0.2137714763405079 0
0.03289154851293087 -0.2187430672495964 0
-0.04138895195098398 -0.2634943181816976 0
0.0413889519510111 -0.6512784090910142 0
0.03294264939679357 -0.6563971019369723 0
0.04155369744578249 -0.6613686928460609 0
0.04138895195101106 -0.3430397727271112 0
-0.04138895195098456 -0.6711647727273701 0
-0.0327779039019953 -0.6761363636364582 0
0.03277790390202207 -0.3380681818180227 0
-0.006944759754919209 -0.2634943181816686 0
0.001666288294097872 -0.2585227272725733 0
-0.00694475975491735 -0.2535511363634915 0
0.03309630509291121 -0.1987425628123086 0
0.04150259656191978 -0.2038282945223308 0
-0.04138895195098456 -0.6612215909091931 0
-0.0411613588103001 -0.7107741770485274 0
0.04157857314484233 -0.1738710477865651 0
0.03317228167583375 -0.1787284978947201 0
-0.006944759754916195 -0.2436079545453145 0
-0.006944759754912945 -0.2237215909089605 0
0.001666288294105399 -0.2187499999998652 0
-0.006944759754911108 -0.2137784090907834 0
0.04138895195101104 -0.2734374999998713 0
-0.04138895195098612 -0.3330965909089363 0
0.0410585093636409 -0.8211542045072739 0
0.0410585093636409 -0.8310973863254512 0
0.0413889519510111 -0.5617897727274199 0
0.0413889519510111 -0.5021306818183571 0
0.0413889519510111 -0.5120738636365343 0
0.0413889519510111 -0.3032670454544026 0
0.04138895195101115 -0.2933238636362255 0
0.03277790390202225 -0.2982954545453141 0
-0.006944759754920573 -0.2734374999998457 0
0.0411057494295386 -0.6823436108152608 0
0.0411057494295386 -0.692286792633438 0
-0.0413889519509834 -0.2535511363635204 0
-0.006944759754880673 -0.203835227272598 0
-0.04138895195098697 -0.6214488636364853 0
0.001666288294101646 -0.2386363636362192 0
-0.006944759754914279 -0.2336647727271375 0
0.001666288294094064 -0.2784090909089275 0
-0.04170437923031852 -0.1342329545454047 0
-0.04170437923031852 -0.1242897727272277 0
-0.007036278547589911 -0.6512784090910037 0
-0.007143532699700948 -0.6611625112141957 0
0.001406508345160212 -0.6561909203051035 0
-0.04157229876192999 -0.09477779326461386 0
-0.04157229876192999 -0.08483461144643691 0
-0.04138895195098216 -0.2137784090908125 0
-0.04138895195098216 -0.2038352272726355 0
-0.0413889519509834 -0.2436079545453434 0
-0.04138895195099698 -0.1938920454544612 0
-0.04138895195099698 -0.1839488636362842 0
-0.04138895195101576 -0.1740056818181125 0
-0.03277790390201274 -0.1789772727271957 0
-0.04138895195098866 -0.3728693181816463 0
0.04138895195101106 -0.6115056818183058 0
-0.04145156067415368 -0.1541193181817586 0
-0.04145156067415368 -0.1441761363635816 0
-0.04138895195101576 -0.1640624999999356 0
-0.03284051262516943 -0.1590909090908471 0
-0.03315593990447219 -0.1392045454544932 0
0.04157197869003368 -0.7802227611161864 0
0.04157197869003368 -0.7901659429343635 0
-0.04138895195098272 -0.2336647727271667 0
-0.04138895195098471 -0.2933238636362283 0
0.04138895195101115 -0.2833806818180484 0
-0.04138895195098612 -0.3231534090907594 0
0.03277790390202219 -0.2784090909089599 0
-0.03348184996575089 -0.1193711094834587 0
-0.04177747073543238 -0.1143995185743703 0
-0.04138895195098272 -0.2237215909089897 0
-0.007036295120462725 -0.6413352272728268 0
0.001513756853717665 -0.6363636363637348 0
-0.04177747073543238 -0.1044563367561933 0
-0.03334976949736236 -0.09980231183902186 0
-0.04071647003330244 -0.7717318137146272 0
-0.04071647003330244 -0.7617886318964502 0
-0.04125571449035061 -0.8104018032789493 0
-0.04125571449035061 -0.8004586214607723 0
0.001513714922252538 -0.6164772727273813 0
0.04169053034384826 -0.7706526828231817 0
0.03326250903388193 -0.7753072621211395 0
-0.04138895195098527 -0.3132102272725825 0
-0.04138895195098527 -0.3032670454544055 0
0.04155369744578249 -0.6713118746642381 0
0.04138895195101128 -0.6214488636364828 0
0.03265944687532109 -0.6775191218430419 0
0.03277790390202234 -0.6164772727273942 0
0.03154352935034702 -0.7953967065219317 0
0.03997155066031335 -0.8006853090421511 0
-0.006944759754938874 -0.4424715909089829 0
0.03997155066031335 -0.8106284908603282 0
0.04138895195101111 -0.482244318182003 0
0.04138895195101111 -0.4921875000001801 0
0.0327779039020222 -0.4971590909092686 0
-0.04138895195098728 -0.3927556818180051 0
-0.04138895195098728 -0.3828124999998281 0
0.001666288294071839 -0.4374999999998853 0
0.0413889519510111 -0.4723011363638258 0
-0.04138895195098742 -0.4026988636361889 0
0.0327779039020222 -0.4772727272729144 0
-0.02427647180538929 -0.6710391299093632 0
-0.02427647180541549 -0.6809823117275421 0
-0.01568067965063027 -0.6660675390002715 0
-0.007237892757880153 -0.6709800502143713 0
0.001316498876818864 -0.1987821072199984 0
-0.007294549172169044 -0.1938105163109083 0
-0.01581456793838583 -0.1889633177121237 0
-0.02442561598744851 -0.1839917268030535 0
-0.0244256159874673 -0.1740485449848818 0
-0.007553309306686289 -0.1839101976595242 0
-0.02453543324564206 -0.1644012081440933 0
-0.02459804196877997 -0.1544580263259164 0
0.02455234548550151 -0.1527792572866546 0
0.02420439142919255 -0.162596623655971 0
-0.01618314533107784 -0.1694156622199511 0
0.02379231585553709 -0.7699110467408303 0
0.02367376420172251 -0.779481125033835 0
-0.02389332052619541 -0.105236776203136 0
-0.02368814855269303 -0.09555823271155661 0
-0.03997141646582901 -0.07431803840702131 0
-0.03997141646582901 -0.06437485658884243 0
-0.031543715227759 -0.07960719530802685 0
-0.04105851201849528 -0.05384766018979935 0
-0.04105851201849528 -0.04390447837162022 0
-0.04094641803109859 -0.8492065529284047 0
-0.04094641803109859 -0.8392633711102279 0
0.040947667602975 -0.02579414992264655 0
0.040947667602975 -0.03573733174082376 0
-0.02403525869888699 -0.6908404194474789 0
-0.01553382660228099 -0.6857431857203837 0
-0.01536060831227978 -0.1490377951286898 0
-0.02366568769180715 -0.1437274960754435 0
-0.023918506247972 -0.1337843142572666 0
0.02514394906188926 -0.1261047385616272 0
0.03269281151367386 -0.1183497204395829 0
0.022697579118077 -0.7323991720349757 0
0.023579433763924 -0.7433386396707882 0
-0.009671879486732178 -0.8582221847428408 0
0.0096732074934846 -0.01677924360972238 0
0.01175518057872776 -0.7309942684003904 0
-0.01475843657808953 -0.866828073107858 0
-0.02475843657805971 -0.866828073107858 0
0.01475930414170963 -0.008172520224488935 0
0.02475930414167982 -0.008172520224488935 0
0.008534984525567542 -0.7479210820538081 0
0.00526845987310918 -0.7384476012229919 0
0.0416957854667505 -0.8402874711316475 0
0.0416957854667505 -0.8502306529498247 0
-0.04169583926209769 -0.03471321989227843 0
-0.04169583926209769 -0.02477003807410001 0
0.008656653964654277 -0.1831824896871475 0
0.009016213272039641 -0.1936626083941934 0
-0.007214292411796384 -0.6901456422344397 0
-0.00745550551832488 -0.680287534514503 0
0.04178434728386728 -0.5525314357148242 0
0.04178434728387109 -0.5213322006491214 0
0.02475187237973135 -0.173186202980964 0
0.001834570341926923 -0.6938960728081767 0
0.009277075948625672 -0.5518465909092223 0
0.01730164495407988 -0.5468750000001338 0
0.0173016449540842 -0.5269886363637741 0
0.009304110013343431 -0.5220170454546815 0
0.0004296938112409786 -0.1789484442360476 0
-0.008090324954975803 -0.174101245637263 0
0.04196007401996164 -0.1243652318019404 0
0.04196007401996164 -0.1343084136201175 0
0.03388660122111292 -0.139271185946532 0
-0.034777726771499 -0.795487030551684 0
0.03478430647264098 -0.07951386331633126 0
-0.02567174809326615 -0.749463741043268 0
-0.03294310170289001 -0.7574393312569069 0
-0.0265806060207601 -0.1144738051793736 0
-0.04344604910789223 -0.8199721038117966 0
0.04344731727324531 -0.05502891746055467 0
0.008316362537434323 -0.8221778999350136 0
-0.008313936525670128 -0.052836659639978 0
-0.04344604910789223 -0.8299152856299736 0
0.04344731727324531 -0.04508573564237763 0
0.02727356944570763 -0.1441569879051894 0
-0.02650751451564625 -0.124364059332231 0
-0.0435220122811484 -0.7805397727273191 0
-0.0435220122811484 -0.790482954545496 0
0.04352715141200653 -0.09446022727268272 0
0.04352715141200653 -0.08451704545450561 0
0.02541277168276555 -0.7883027135851559 0
0.04266644276105701 -0.867681517239181 0
0.03266644276103043 -0.867681517239181 0
-0.02541482767464694 -0.08670346632110959 0
-0.04266681095429231 -0.00731811246362342 0
-0.03266681095426573 -0.00731811246362342 0
0.04266644276105701 -0.8577383354210039 0
-0.04266681095429231 -0.01726129428180269 0
-0.04212858580373038 -0.7199538122027891 0
0.02539434548299591 -0.5525314357148136 0
0.02539434548300404 -0.5213322006491053 0
0.008119638316364763 -0.1733735376648863 0
0.03317329923487837 -0.5575030266239126 0
0.03317329923488219 -0.5163606097400327 0
0.01579911751923926 -0.1670180037909932 0
0.001081641432604448 -0.6753825067284274 0
-0.04222663166958757 -0.7513325175423331 0
0.04357940918208786 -0.7011257712498595 0
-0.008567773723698578 -0.156490275190842 0
-0.007635419446725754 -0.1457597449403691 0
0.02500000000003467 -0.5717329545455969 0
0.02499895015013973 -0.5617897727274093 0
0.01722104624815221 -0.5667613636364979 0
0.02499982502505112 -0.5021306818183457 0
0.01722087127317298 -0.5071022727274184 0
0.02499895015014404 -0.5120738636365182 0
0.009244965467117026 -0.6611771815878441 0
0.009261451529096357 -0.6711056930323762 0
0.01720716280316421 -0.6662078521919246 0
0.00944418733562692 -0.4524147727272406 0
0.01722209042753267 -0.4474431818182039 0
0.009444191385972236 -0.4424715909090452 0
0.02499999513957817 -0.4524147727273739 0
0.02499999918992349 -0.4424715909091785 0
0.009444163033560932 -0.4822443181819451 0
0.009444163033565413 -0.4723011363636673 0
0.02499999999996764 -0.4126420454545101 0
0.02499999999998396 -0.4225852272727664 0
0.009444187335627467 -0.4623579545454367 0
0.009444192196073592 -0.2933238636362003 0
0.01722209609805334 -0.2883522727271154 0
0.009444192196071857 -0.2833806818180196 0
0.02500000000003869 -0.2933238636362166 0
0.02500000000003695 -0.2833806818180358 0
0.009444017221065647 -0.502130681818325 0
0.009444017221069332 -0.4921875000001379 0
0.009367577418541165 -0.5816761363637677 0
0.009367577418543216 -0.5916193181819454 0
0.0172220960980492 -0.5866477272728632 0
0.00936328214626457 -0.5717329545455896 0
0.009367887366196124 -0.6015625000001226 0
0.009367887366197893 -0.6115056818182993 0
0.01722209609805302 -0.6065340909092176 0
0.009367923654109435 -0.6214488636364763 0
0.009367923654111125 -0.6313920454546529 0
0.01722209609805648 -0.6264204545455708 0
0.009444192196068528 -0.3430397727270894 0
0.009444192196069451 -0.333096590908911 0
0.009367929297664709 -0.6413352272728294 0
0.009444192196070867 -0.3231534090907345 0
0.009444192196072468 -0.313210227272557 0
0.01722209609805484 -0.3281249999998317 0
0.01722209609805567 -0.3082386363634758 0
0.009444192196071873 -0.3032670454543775 0
0.02500000000002918 -0.3529829545452829 0
0.02499999999999697 -0.3629261363634842 0
0.02500000000003461 -0.581676136363774 0
0.02498429032160353 -0.6512930794646591 0
0.02514903581637493 -0.6613833632197059 0
0.02500000000003667 -0.5916193181819518 0
0.02500000000003684 -0.2734374999998587 0
0.02500000000003711 -0.2634943181816807 0
0.01722209609805187 -0.2684659090907566 0
0.02500000000003694 -0.2535511363635036 0
0.02500000000003669 -0.601562500000129 0
0.02500000000003723 -0.2436079545453254 0
0.01722209609805242 -0.2485795454544004 0
0.02500000000003744 -0.2336647727271482 0
0.02500000000003836 -0.223721590908971 0
0.01722209609805361 -0.2286931818180452 0
0.02500000000003846 -0.6115056818183058 0
0.02511364461094704 -0.2137714763404933 0
0.02500000000003867 -0.6214488636364827 0
0.01722189196057165 -0.4872159090910533 0
0.02500000000004036 -0.6313920454546592 0
0.02500000000004018 -0.6413352272728365 0
0.009352219619228065 -0.6512930794646521 0
0.02500000000003772 -0.3330965909089268 0
0.02500000000003778 -0.3430397727271039 0
0.02500000000003914 -0.3231534090907505 0
0.02500000000003922 -0.3132102272725732 0
0.02499982502505113 -0.4921875000001688 0
0.02500000000003863 -0.3032670454543937 0
0.02499999999997915 -0.3927556818180777 0
0.02499999999997005 -0.402698863636299 0
0.009444192196073807 -0.2734374999998425 0
0.009444192196074076 -0.2634943181816645 0
0.009444192196060283 -0.3629261363634496 0
0.009444192196059934 -0.3529829545452684 0
0.009444192196075936 -0.2535511363634874 0
0.009444192196076217 -0.2436079545453093 0
0.009444192196078132 -0.2336647727271323 0
0.02499999918992273 -0.4325284090909843 0
0.009444192196079046 -0.2237215909089551 0
0.01722206207512531 -0.4673295454546299 0
0.009444192196080881 -0.2137784090907781 0
0.02499999999998747 -0.3728693181816777 0
0.02499999999998513 -0.382812499999879 0
0.01720638641962152 -0.6463214885555699 0
0.02503545510419417 -0.2036803866055983 0
0.01722209528793923 -0.4275568181817906 0
0.02499997083754273 -0.4822443181819761 0
0.01722209609804484 -0.3480113636361871 0
0.02499997083754272 -0.4723011363637989 0
0.01714390659130166 -0.208658910264973 0
0.009366002689328011 -0.203687319355883 0
0.00944419219605078 -0.372869318181643 0
0.01722209609802674 -0.3678977272725595 0
0.01722209609801126 -0.3877840909089518 0
0.01722209609800287 -0.4076704545453616 0
0.0094441921960509 -0.3828124999998306 0
0.00944419219604492 -0.3927556818180293 0
0.009444192196043776 -0.402698863636223 0
0.02499999513960477 -0.4623579545455683 0
0.009444192196041366 -0.4126420454544339 0
0.00944419219603883 -0.4225852272726306 0
0.009444191385977595 -0.4325284090908486 0
0.02516552187835426 -0.6713118746642379 0
0.00936223229636963 -0.5617897727274019 0
0.009443142346158572 -0.5120738636364974 0
0.02471757386211037 -0.6823436108152605 0
-0.008200142213150572 -0.1644539087964745 0
-0.03271546554352051 -0.8677308201517934 0
-0.04271546554349748 -0.8677308201517934 0
0.03271546554352098 -0.007269179848206575 0
0.04271546554349794 -0.007269179848206575 0
-0.04271546554349748 -0.8577876383336165 0
0.04271546554349794 -0.01721236166638368 0
0.02640758419555005 -0.7610904131837064 0
0.007572157365825963 -0.1627839583398933 0
0.00904383876865163 -0.6804131773325078 0
0.008904500766917118 -0.7903447818467246 0
0.01594257850442071 -0.7829064982048468 0
-0.008901017881898716 -0.08466948138431282 0
-0.01595837870347998 -0.09213793068522377 0
0.02597502272910613 -0.7514987988231954 0
0.02730711626451799 -0.1342980837444124 0
0.01703851873822146 -0.7482834833868708 0
0.01605531321658309 -0.6839673377824006 0
0.008846044789858383 -0.6974502332580694 0
0.01853091728648397 -0.1309905405202846 0
-0.02747390212153416 -0.8595588932596514 0
0.02747476968515472 -0.01544170007269551 0
0.0343622282278075 -0.8528553520071829 0
-0.03436265021639 -0.02214496871954417 0
0.02761327642083486 -0.8593079094176821 0
-0.02761401427744908 -0.01569221787095102 0
-0.03366188357459606 -0.8518805548983751 0
0.03366313314647293 -0.02312014795267602 0
-0.0004749533475965412 -0.1611758586081538 0
0.007875503120091181 -0.6882441514784517 0
$EndNodes
$Elements
5 2324 1 2324
1 1 1 10
1 1 7 
2 7 3 
3 3 8 
4 8 4 
5 4 9 
6 9 5 
7 5 10 
8 10 6 
9 6 11 
10 11 2 
1 2 1 88
11 2 45 
12 45 77 
13 77 33 
14 33 76 
15 76 32 
16 32 75 
17 75 31 
18 31 74 
19 74 30 
20 30 73 
21 73 29 
22 29 72 
23 72 28 
24 28 71 
25 71 27 
26 27 70 
27 70 26 
28 26 69 
29 69 25 
30 25 68 
31 68 24 
32 24 56 
33 56 12 
34 12 66 
35 66 22 
36 22 65 
37 65 21 
38 21 64 
39 64 20 
40 20 63 
41 63 19 
42 19 62 
43 62 18 
44 18 61 
45 61 17 
46 17 60 
47 60 16 
48 16 59 
49 59 15 
50 15 58 
51 58 14 
52 14 57 
53 57 13 
54 13 67 
55 67 23 
56 23 99 
57 99 55 
58 55 98 
59 98 54 
60 54 97 
61 97 53 
62 53 96 
63 96 52 
64 52 95 
65 95 51 
66 51 94 
67 94 50 
68 50 93 
69 93 49 
70 49 92 
71 92 48 
72 48 91 
73 91 47 
74 47 90 
75 90 46 
76 46 78 
77 78 34 
78 34 88 
79 88 44 
80 44 87 
81 87 43 
82 43 86 
83 86 42 
84 42 85 
85 85 41 
86 41 84 
87 84 40 
88 40 83 
89 83 39 
90 39 82 
91 82 38 
92 38 81 
93 81 37 
94 37 80 
95 80 36 
96 36 79 
97 79 35 
98 35 89 
1 3 1 10
99 89 105 
100 105 101 
101 101 106 
102 106 102 
103 102 107 
104 107 103 
105 103 108 
106 108 104 
107 104 109 
108 109 100 
1 4 1 88
109 100 143 
110 143 187 
111 187 131 
112 131 175 
113 175 130 
114 130 174 
115 174 129 
116 129 173 
117 173 128 
118 128 172 
119 172 127 
120 127 171 
121 171 126 
122 126 170 
123 170 125 
124 125 169 
125 169 124 
126 124 168 
127 168 123 
128 123 167 
129 167 122 
130 122 166 
131 166 110 
132 110 154 
133 154 120 
134 120 164 
135 164 119 
136 119 163 
137 163 118 
138 118 162 
139 162 117 
140 117 161 
141 161 116 
142 116 160 
143 160 115 
144 115 159 
145 159 114 
146 114 158 
147 158 113 
148 113 157 
149 157 112 
150 112 156 
151 156 111 
152 111 155 
153 155 121 
154 121 165 
155 165 153 
156 153 196 
157 196 152 
158 152 195 
159 195 151 
160 151 194 
161 194 150 
162 150 193 
163 193 149 
164 149 192 
165 192 148 
166 148 191 
167 191 147 
168 147 190 
169 190 146 
170 146 189 
171 189 145 
172 145 188 
173 188 144 
174 144 176 
175 176 132 
176 132 186 
177 186 142 
178 142 185 
179 185 141 
180 141 184 
181 184 140 
182 140 183 
183 183 139 
184 139 182 
185 182 138 
186 138 181 
187 181 137 
188 137 180 
189 180 136 
190 136 179 
191 179 135 
192 135 178 
193 178 134 
194 134 177 
195 177 133 
196 133 1 
2 1 2 2128
197 218 415 417 
198 415 416 417 
199 415 240 416 
200 417 416 363 
201 236 418 420 
202 418 419 420 
203 418 259 419 
204 420 419 364 
205 269 421 423 
206 421 422 423 
207 421 267 422 
208 423 422 349 
209 250 424 426 
210 424 425 426 
211 424 248 425 
212 426 425 330 
213 240 415 428 
214 415 427 428 
215 415 218 427 
216 428 427 399 
217 259 418 430 
218 418 429 430 
219 418 236 429 
220 430 429 400 
221 200 431 433 
222 431 432 433 
223 431 247 432 
224 433 432 248 
225 230 434 436 
226 434 435 436 
227 434 266 435 
228 436 435 267 
229 237 437 439 
230 437 438 439 
231 437 241 438 
232 439 438 243 
233 238 440 442 
234 440 441 442 
235 440 260 441 
236 442 441 262 
237 253 443 445 
238 443 444 445 
239 443 201 444 
240 445 444 408 
241 267 446 422 
242 446 447 422 
243 446 265 447 
244 422 447 349 
245 201 443 449 
246 443 448 449 
247 443 253 448 
248 449 448 358 
249 248 450 425 
250 450 451 425 
251 450 246 451 
252 425 451 330 
253 71 27 453 
254 27 452 453 
255 27 70 452 
256 453 452 257 
257 247 431 455 
258 431 454 455 
259 431 200 454 
260 455 454 402 
261 266 434 457 
262 434 456 457 
263 434 230 456 
264 457 456 403 
265 183 458 460 
266 458 459 460 
267 458 395 459 
268 460 459 408 
269 237 439 462 
270 439 461 462 
271 439 243 461 
272 462 461 397 
273 238 442 464 
274 442 463 464 
275 442 262 463 
276 464 463 398 
277 395 465 459 
278 465 466 459 
279 465 252 466 
280 459 466 408 
281 252 467 466 
282 467 445 466 
283 467 253 445 
284 466 445 408 
285 200 433 469 
286 433 468 469 
287 433 248 468 
288 469 468 249 
289 230 436 471 
290 436 470 471 
291 436 267 470 
292 471 470 268 
293 199 472 474 
294 472 473 474 
295 472 243 473 
296 474 473 244 
297 216 475 477 
298 475 476 477 
299 475 262 476 
300 477 476 263 
301 270 478 480 
302 478 479 480 
303 478 269 479 
304 480 479 359 
305 199 474 482 
306 474 481 482 
307 474 244 481 
308 482 481 247 
309 216 477 484 
310 477 483 484 
311 477 263 483 
312 484 483 266 
313 217 485 486 
314 485 453 486 
315 485 71 453 
316 486 453 257 
317 240 487 416 
318 487 488 416 
319 487 239 488 
320 416 488 363 
321 259 489 419 
322 489 490 419 
323 489 258 490 
324 419 490 364 
325 355 491 493 
326 491 492 493 
327 491 245 492 
328 493 492 399 
329 328 494 496 
330 494 495 496 
331 494 264 495 
332 496 495 400 
333 257 452 498 
334 452 497 498 
335 452 70 497 
336 498 497 410 
337 359 479 500 
338 479 499 500 
339 479 269 499 
340 500 499 396 
341 241 437 502 
342 437 501 502 
343 437 237 501 
344 502 501 361 
345 260 440 504 
346 440 503 504 
347 440 238 503 
348 504 503 362 
349 269 423 499 
350 423 505 499 
351 423 349 505 
352 499 505 396 
353 365 506 508 
354 506 507 508 
355 506 61 507 
356 508 507 366 
357 270 509 511 
358 509 510 511 
359 509 336 510 
360 511 510 407 
361 253 512 448 
362 512 513 448 
363 512 255 513 
364 448 513 358 
365 250 426 515 
366 426 514 515 
367 426 330 514 
368 515 514 401 
369 336 509 517 
370 509 516 517 
371 509 270 516 
372 517 516 409 
373 220 518 520 
374 518 519 520 
375 518 256 519 
376 520 519 410 
377 263 521 483 
378 521 522 483 
379 521 265 522 
380 483 522 266 
381 244 523 481 
382 523 524 481 
383 523 246 524 
384 481 524 247 
385 266 522 435 
386 522 446 435 
387 522 265 446 
388 435 446 267 
389 247 524 432 
390 524 450 432 
391 524 246 450 
392 432 450 248 
393 256 518 526 
394 518 525 526 
395 518 220 525 
396 526 525 404 
397 249 468 527 
398 468 424 527 
399 468 248 424 
400 527 424 250 
401 268 470 528 
402 470 421 528 
403 470 267 421 
404 528 421 269 
405 245 491 530 
406 491 529 530 
407 491 355 529 
408 530 529 405 
409 264 494 532 
410 494 531 532 
411 494 328 531 
412 532 531 406 
413 285 533 534 
414 533 508 534 
415 533 365 508 
416 534 508 366 
417 218 535 427 
418 535 493 427 
419 535 355 493 
420 427 493 399 
421 236 536 429 
422 536 496 429 
423 536 328 496 
424 429 496 400 
425 249 527 538 
426 527 537 538 
427 527 250 537 
428 538 537 251 
429 268 528 539 
430 528 478 539 
431 528 269 478 
432 539 478 270 
433 228 540 542 
434 540 541 542 
435 540 367 541 
436 542 541 383 
437 243 472 461 
438 472 543 461 
439 472 199 543 
440 461 543 397 
441 262 475 463 
442 475 544 463 
443 475 216 544 
444 463 544 398 
445 249 538 546 
446 538 545 546 
447 538 251 545 
448 546 545 252 
449 235 547 548 
450 547 487 548 
451 547 239 487 
452 548 487 240 
453 235 548 550 
454 548 549 550 
455 548 240 549 
456 550 549 241 
457 215 551 552 
458 551 489 552 
459 551 258 489 
460 552 489 259 
461 215 552 554 
462 552 553 554 
463 552 259 553 
464 554 553 260 
465 241 549 556 
466 549 555 556 
467 549 240 555 
468 556 555 242 
469 260 553 558 
470 553 557 558 
471 553 259 557 
472 558 557 261 
473 235 559 547 
474 559 560 547 
475 559 5 560 
476 547 560 239 
477 260 558 441 
478 558 561 441 
479 558 261 561 
480 441 561 262 
481 215 562 551 
482 562 563 551 
483 562 103 563 
484 551 563 258 
485 262 561 476 
486 561 564 476 
487 561 261 564 
488 476 564 263 
489 4 9 565 
490 9 559 565 
491 9 5 559 
492 565 559 235 
493 241 556 438 
494 556 566 438 
495 556 242 566 
496 438 566 243 
497 102 107 567 
498 107 562 567 
499 107 103 562 
500 567 562 215 
501 243 566 473 
502 566 568 473 
503 566 242 568 
504 473 568 244 
505 5 10 560 
506 10 569 560 
507 10 6 569 
508 560 569 239 
509 252 545 467 
510 545 570 467 
511 545 251 570 
512 467 570 253 
513 263 571 521 
514 571 572 521 
515 571 264 572 
516 521 572 265 
517 103 108 563 
518 108 573 563 
519 108 104 573 
520 563 573 258 
521 263 564 571 
522 564 574 571 
523 564 261 574 
524 571 574 264 
525 244 568 576 
526 568 575 576 
527 568 242 575 
528 576 575 245 
529 244 576 523 
530 576 577 523 
531 576 245 577 
532 523 577 246 
533 253 570 579 
534 570 578 579 
535 570 251 578 
536 579 578 254 
537 253 579 512 
538 579 580 512 
539 579 254 580 
540 512 580 255 
541 255 580 582 
542 580 581 582 
543 580 254 581 
544 582 581 256 
545 256 581 584 
546 581 583 584 
547 581 254 583 
548 584 583 257 
549 209 585 587 
550 585 586 587 
551 585 321 586 
552 587 586 344 
553 209 588 585 
554 588 589 585 
555 588 319 589 
556 585 589 321 
557 319 588 591 
558 588 590 591 
559 588 209 590 
560 591 590 350 
561 317 592 593 
562 592 591 593 
563 592 319 591 
564 593 591 350 
565 208 594 595 
566 594 593 595 
567 594 317 593 
568 595 593 350 
569 208 596 594 
570 596 597 594 
571 596 315 597 
572 594 597 317 
573 315 596 599 
574 596 598 599 
575 596 208 598 
576 599 598 342 
577 313 600 601 
578 600 599 601 
579 600 315 599 
580 601 599 342 
581 207 602 603 
582 602 601 603 
583 602 313 601 
584 603 601 342 
585 207 604 602 
586 604 605 602 
587 604 311 605 
588 602 605 313 
589 282 606 608 
590 606 607 608 
591 606 276 607 
592 608 607 327 
593 311 604 610 
594 604 609 610 
595 604 207 609 
596 610 609 352 
597 309 611 612 
598 611 610 612 
599 611 311 610 
600 612 610 352 
601 202 613 615 
602 613 614 615 
603 613 296 614 
604 615 614 353 
605 206 616 617 
606 616 612 617 
607 616 309 612 
608 617 612 352 
609 206 618 616 
610 618 619 616 
611 618 307 619 
612 616 619 309 
613 296 620 614 
614 620 621 614 
615 620 294 621 
616 614 621 353 
617 294 622 621 
618 622 623 621 
619 622 203 623 
620 621 623 353 
621 307 618 625 
622 618 624 625 
623 618 206 624 
624 625 624 347 
625 305 626 627 
626 626 625 627 
627 626 307 625 
628 627 625 347 
629 292 628 629 
630 628 622 629 
631 628 203 622 
632 629 622 294 
633 203 628 631 
634 628 630 631 
635 628 292 630 
636 631 630 351 
637 197 632 633 
638 632 627 633 
639 632 305 627 
640 633 627 347 
641 197 634 632 
642 634 635 632 
643 634 303 635 
644 632 635 305 
645 292 636 630 
646 636 637 630 
647 636 290 637 
648 630 637 351 
649 290 638 637 
650 638 639 637 
651 638 205 639 
652 637 639 351 
653 288 640 641 
654 640 638 641 
655 640 205 638 
656 641 638 290 
657 276 642 607 
658 642 643 607 
659 642 272 643 
660 607 643 327 
661 205 640 645 
662 640 644 645 
663 640 288 644 
664 645 644 332 
665 288 646 644 
666 646 647 644 
667 646 286 647 
668 644 647 332 
669 301 648 650 
670 648 649 650 
671 648 303 649 
672 650 649 337 
673 286 651 647 
674 651 652 647 
675 651 204 652 
676 647 652 332 
677 303 634 649 
678 634 653 649 
679 634 197 653 
680 649 653 337 
681 283 654 655 
682 654 651 655 
683 654 204 651 
684 655 651 286 
685 231 656 658 
686 656 657 658 
687 656 271 657 
688 658 657 272 
689 272 657 643 
690 657 659 643 
691 657 271 659 
692 643 659 327 
693 213 660 662 
694 660 661 662 
695 660 299 661 
696 662 661 301 
697 231 663 656 
698 663 664 656 
699 663 165 664 
700 656 664 271 
701 194 150 666 
702 150 665 666 
703 150 193 665 
704 666 665 325 
705 213 662 667 
706 662 650 667 
707 662 301 650 
708 667 650 337 
709 277 668 669 
710 668 666 669 
711 668 194 666 
712 669 666 325 
713 299 660 671 
714 660 670 671 
715 660 213 670 
716 671 670 326 
717 204 654 673 
718 654 672 673 
719 654 283 672 
720 673 672 325 
721 155 121 674 
722 121 663 674 
723 121 165 663 
724 674 663 231 
725 97 53 676 
726 53 675 676 
727 53 96 675 
728 676 675 324 
729 96 677 675 
730 677 678 675 
731 677 224 678 
732 675 678 324 
733 234 679 681 
734 679 680 681 
735 679 99 680 
736 681 680 323 
737 98 54 683 
738 54 682 683 
739 54 97 682 
740 683 682 232 
741 196 152 685 
742 152 684 685 
743 152 195 684 
744 685 684 233 
745 195 151 686 
746 151 668 686 
747 151 194 668 
748 686 668 277 
749 193 687 665 
750 687 673 665 
751 687 204 673 
752 665 673 325 
753 233 684 688 
754 684 686 688 
755 684 195 686 
756 688 686 277 
757 232 682 689 
758 682 676 689 
759 682 97 676 
760 689 676 324 
761 155 674 691 
762 674 690 691 
763 674 231 690 
764 691 690 326 
765 156 111 692 
766 111 691 692 
767 111 155 691 
768 692 691 326 
769 67 23 693 
770 23 679 693 
771 23 99 679 
772 693 679 234 
773 273 694 695 
774 694 671 695 
775 694 299 671 
776 695 671 326 
777 271 696 659 
778 696 697 659 
779 696 233 697 
780 659 697 327 
781 165 153 664 
782 153 698 664 
783 153 196 698 
784 664 698 271 
785 196 685 698 
786 685 696 698 
787 685 233 696 
788 698 696 271 
789 231 658 700 
790 658 699 700 
791 658 272 699 
792 700 699 273 
793 231 700 690 
794 700 695 690 
795 700 273 695 
796 690 695 326 
797 278 701 702 
798 701 608 702 
799 701 282 608 
800 702 608 327 
801 213 703 670 
802 703 692 670 
803 703 156 692 
804 670 692 326 
805 57 13 705 
806 13 704 705 
807 13 67 704 
808 705 704 356 
809 233 706 697 
810 706 702 697 
811 706 278 702 
812 697 702 327 
813 278 707 709 
814 707 708 709 
815 707 277 708 
816 709 708 279 
817 99 55 680 
818 55 710 680 
819 55 98 710 
820 680 710 323 
821 233 688 706 
822 688 707 706 
823 688 277 707 
824 706 707 278 
825 98 683 710 
826 683 711 710 
827 683 232 711 
828 710 711 323 
829 278 709 713 
830 709 712 713 
831 709 279 712 
832 713 712 280 
833 214 714 715 
834 714 705 715 
835 714 57 705 
836 715 705 356 
837 301 716 648 
838 716 717 648 
839 716 302 717 
840 648 717 303 
841 303 717 719 
842 717 718 719 
843 717 302 718 
844 719 718 304 
845 303 719 635 
846 719 720 635 
847 719 304 720 
848 635 720 305 
849 280 712 722 
850 712 721 722 
851 712 279 721 
852 722 721 281 
853 299 723 661 
854 723 724 661 
855 723 300 724 
856 661 724 301 
857 305 720 726 
858 720 725 726 
859 720 304 725 
860 726 725 306 
861 301 724 716 
862 724 727 716 
863 724 300 727 
864 716 727 302 
865 281 721 729 
866 721 728 729 
867 721 279 728 
868 729 728 283 
869 281 729 731 
870 729 730 731 
871 729 283 730 
872 731 730 284 
873 305 726 626 
874 726 732 626 
875 726 306 732 
876 626 732 307 
877 284 730 733 
878 730 655 733 
879 730 283 655 
880 733 655 286 
881 274 734 735 
882 734 642 735 
883 734 272 642 
884 735 642 276 
885 278 713 701 
886 713 736 701 
887 713 280 736 
888 701 736 282 
889 273 737 694 
890 737 738 694 
891 737 275 738 
892 694 738 299 
893 284 733 740 
894 733 739 740 
895 733 286 739 
896 740 739 287 
897 279 708 741 
898 708 669 741 
899 708 277 669 
900 741 669 325 
901 307 732 743 
902 732 742 743 
903 732 306 742 
904 743 742 308 
905 67 693 704 
906 693 744 704 
907 693 234 744 
908 704 744 356 
909 281 731 746 
910 731 745 746 
911 731 284 745 
912 746 745 285 
913 287 739 747 
914 739 646 747 
915 739 286 646 
916 747 646 288 
917 307 743 619 
918 743 748 619 
919 743 308 748 
920 619 748 309 
921 287 747 750 
922 747 749 750 
923 747 288 749 
924 750 749 289 
925 204 751 652 
926 751 752 652 
927 751 192 752 
928 652 752 332 
929 185 753 755 
930 753 754 755 
931 753 201 754 
932 755 754 340 
933 309 748 757 
934 748 756 757 
935 748 308 756 
936 757 756 310 
937 192 148 752 
938 148 758 752 
939 148 191 758 
940 752 758 332 
941 186 142 759 
942 142 755 759 
943 142 185 755 
944 759 755 340 
945 190 146 761 
946 146 760 761 
947 146 189 760 
948 761 760 351 
949 289 749 762 
950 749 641 762 
951 749 288 641 
952 762 641 290 
953 188 144 764 
954 144 763 764 
955 144 176 763 
956 764 763 353 
957 309 757 611 
958 757 765 611 
959 757 310 765 
960 611 765 311 
961 205 766 639 
962 766 761 639 
963 766 190 761 
964 639 761 351 
965 90 767 769 
966 767 768 769 
967 767 227 768 
968 769 768 334 
969 91 47 770 
970 47 769 770 
971 47 90 769 
972 770 769 334 
973 299 738 723 
974 738 771 723 
975 738 275 771 
976 723 771 300 
977 72 772 774 
978 772 773 774 
979 772 217 773 
980 774 773 329 
981 203 775 623 
982 775 764 623 
983 775 188 764 
984 623 764 353 
985 291 776 777 
986 776 636 777 
987 776 290 636 
988 777 636 292 
989 311 765 779 
990 765 778 779 
991 765 310 778 
992 779 778 312 
993 221 780 782 
994 780 781 782 
995 780 66 781 
996 782 781 341 
997 226 783 784 
998 783 770 784 
999 783 91 770 
1000 784 770 334 
1001 289 762 785 
1002 762 776 785 
1003 762 290 776 
1004 785 776 291 
1005 84 40 787 
1006 40 786 787 
1007 40 83 786 
1008 787 786 230 
1009 160 115 789 
1010 115 788 789 
1011 115 159 788 
1012 789 788 347 
1013 63 790 792 
1014 790 791 792 
1015 790 222 791 
1016 792 791 331 
1017 94 793 795 
1018 793 794 795 
1019 793 225 794 
1020 795 794 338 
1021 293 796 797 
1022 796 629 797 
1023 796 292 629 
1024 797 629 294 
1025 86 798 800 
1026 798 799 800 
1027 798 229 799 
1028 800 799 335 
1029 82 38 802 
1030 38 801 802 
1031 38 81 801 
1032 802 801 216 
1033 159 803 788 
1034 803 633 788 
1035 803 197 633 
1036 788 633 347 
1037 223 804 806 
1038 804 805 806 
1039 804 64 805 
1040 806 805 331 
1041 95 51 807 
1042 51 795 807 
1043 51 94 795 
1044 807 795 338 
1045 191 808 758 
1046 808 645 758 
1047 808 205 645 
1048 758 645 332 
1049 163 809 810 
1050 809 603 810 
1051 809 207 603 
1052 810 603 342 
1053 88 44 812 
1054 44 811 812 
1055 44 87 811 
1056 812 811 228 
1057 86 42 798 
1058 42 813 798 
1059 42 85 813 
1060 798 813 229 
1061 311 779 605 
1062 779 814 605 
1063 779 312 814 
1064 605 814 313 
1065 227 815 817 
1066 815 816 817 
1067 815 78 816 
1068 817 816 339 
1069 164 119 818 
1070 119 810 818 
1071 119 163 810 
1072 818 810 342 
1073 56 819 821 
1074 819 820 821 
1075 819 221 820 
1076 821 820 333 
1077 96 52 677 
1078 52 822 677 
1079 52 95 822 
1080 677 822 224 
1081 202 823 824 
1082 823 759 824 
1083 823 186 759 
1084 824 759 340 
1085 224 822 825 
1086 822 807 825 
1087 822 95 807 
1088 825 807 338 
1089 315 826 828 
1090 826 827 828 
1091 826 314 827 
1092 828 827 316 
1093 88 812 830 
1094 812 829 830 
1095 812 228 829 
1096 830 829 339 
1097 176 132 831 
1098 132 823 831 
1099 132 186 823 
1100 831 823 202 
1101 185 141 753 
1102 141 832 753 
1103 141 184 832 
1104 753 832 201 
1105 87 43 833 
1106 43 800 833 
1107 43 86 800 
1108 833 800 335 
1109 228 811 834 
1110 811 833 834 
1111 811 87 833 
1112 834 833 335 
1113 315 828 597 
1114 828 835 597 
1115 828 316 835 
1116 597 835 317 
1117 319 836 838 
1118 836 837 838 
1119 836 318 837 
1120 838 837 320 
1121 92 48 839 
1122 48 783 839 
1123 48 91 783 
1124 839 783 226 
1125 206 840 624 
1126 840 789 624 
1127 840 160 789 
1128 624 789 347 
1129 76 32 842 
1130 32 841 842 
1131 32 75 841 
1132 842 841 218 
1133 63 19 790 
1134 19 843 790 
1135 19 62 843 
1136 790 843 222 
1137 60 16 845 
1138 16 844 845 
1139 16 59 844 
1140 845 844 198 
1141 225 846 848 
1142 846 847 848 
1143 846 93 847 
1144 848 847 343 
1145 78 34 816 
1146 34 830 816 
1147 34 88 830 
1148 816 830 339 
1149 313 849 600 
1150 849 826 600 
1151 849 314 826 
1152 600 826 315 
1153 69 25 851 
1154 25 850 851 
1155 25 68 850 
1156 851 850 220 
1157 56 12 819 
1158 12 780 819 
1159 12 66 780 
1160 819 780 221 
1161 94 50 793 
1162 50 846 793 
1163 50 93 846 
1164 793 846 225 
1165 90 46 767 
1166 46 815 767 
1167 46 78 815 
1168 767 815 227 
1169 208 852 598 
1170 852 818 598 
1171 852 164 818 
1172 598 818 342 
1173 319 838 589 
1174 838 853 589 
1175 838 320 853 
1176 589 853 321 
1177 64 20 805 
1178 20 792 805 
1179 20 63 792 
1180 805 792 331 
1181 189 854 760 
1182 854 631 760 
1183 854 203 631 
1184 760 631 351 
1185 317 835 856 
1186 835 855 856 
1187 835 316 855 
1188 856 855 318 
1189 317 856 592 
1190 856 836 592 
1191 856 318 836 
1192 592 836 319 
1193 191 147 808 
1194 147 766 808 
1195 147 190 766 
1196 808 766 205 
1197 313 814 849 
1198 814 857 849 
1199 814 312 857 
1200 849 857 314 
1201 171 126 859 
1202 126 858 859 
1203 126 170 858 
1204 859 858 211 
1205 176 831 763 
1206 831 615 763 
1207 831 202 615 
1208 763 615 353 
1209 295 860 862 
1210 860 861 862 
1211 860 296 861 
1212 862 861 297 
1213 173 128 864 
1214 128 863 864 
1215 128 172 863 
1216 864 863 212 
1217 167 122 866 
1218 122 865 866 
1219 122 166 865 
1220 866 865 209 
1221 154 120 867 
1222 120 852 867 
1223 120 164 852 
1224 867 852 208 
1225 168 123 869 
1226 123 868 869 
1227 123 167 868 
1228 869 868 344 
1229 210 870 871 
1230 870 869 871 
1231 870 168 869 
1232 871 869 344 
1233 159 114 803 
1234 114 872 803 
1235 114 158 872 
1236 803 872 197 
1237 65 21 873 
1238 21 804 873 
1239 21 64 804 
1240 873 804 223 
1241 170 125 875 
1242 125 874 875 
1243 125 169 874 
1244 875 874 345 
1245 169 876 874 
1246 876 877 874 
1247 876 210 877 
1248 874 877 345 
1249 211 858 878 
1250 858 875 878 
1251 858 170 875 
1252 878 875 345 
1253 74 30 880 
1254 30 879 880 
1255 30 73 879 
1256 880 879 219 
1257 72 28 772 
1258 28 485 772 
1259 28 71 485 
1260 772 485 217 
1261 154 867 881 
1262 867 595 881 
1263 867 208 595 
1264 881 595 350 
1265 169 124 876 
1266 124 870 876 
1267 124 168 870 
1268 876 870 210 
1269 163 118 809 
1270 118 882 809 
1271 118 162 882 
1272 809 882 207 
1273 93 49 847 
1274 49 883 847 
1275 49 92 883 
1276 847 883 343 
1277 161 116 884 
1278 116 840 884 
1279 116 160 840 
1280 884 840 206 
1281 92 839 883 
1282 839 885 883 
1283 839 226 885 
1284 883 885 343 
1285 171 859 887 
1286 859 886 887 
1287 859 211 886 
1288 887 886 348 
1289 167 866 868 
1290 866 587 868 
1291 866 209 587 
1292 868 587 344 
1293 166 110 888 
1294 110 881 888 
1295 110 154 881 
1296 888 881 350 
1297 293 797 890 
1298 797 889 890 
1299 797 294 889 
1300 890 889 295 
1301 295 889 860 
1302 889 620 860 
1303 889 294 620 
1304 860 620 296 
1305 212 863 892 
1306 863 891 892 
1307 863 172 891 
1308 892 891 348 
1309 172 127 891 
1310 127 887 891 
1311 127 171 887 
1312 891 887 348 
1313 209 865 590 
1314 865 888 590 
1315 865 166 888 
1316 590 888 350 
1317 193 149 687 
1318 149 751 687 
1319 149 192 751 
1320 687 751 204 
1321 189 145 854 
1322 145 775 854 
1323 145 188 775 
1324 854 775 203 
1325 182 138 894 
1326 138 893 894 
1327 138 181 893 
1328 894 893 200 
1329 180 136 896 
1330 136 895 896 
1331 136 179 895 
1332 896 895 199 
1333 291 777 897 
1334 777 796 897 
1335 777 292 796 
1336 897 796 293 
1337 219 879 899 
1338 879 898 899 
1339 879 73 898 
1340 899 898 329 
1341 162 117 901 
1342 117 900 901 
1343 117 161 900 
1344 901 900 352 
1345 68 24 902 
1346 24 821 902 
1347 24 56 821 
1348 902 821 333 
1349 207 882 609 
1350 882 901 609 
1351 882 162 901 
1352 609 901 352 
1353 161 884 900 
1354 884 617 900 
1355 884 206 617 
1356 900 617 352 
1357 66 22 781 
1358 22 903 781 
1359 22 65 903 
1360 781 903 341 
1361 73 29 898 
1362 29 774 898 
1363 29 72 774 
1364 898 774 329 
1365 220 850 904 
1366 850 902 904 
1367 850 68 902 
1368 904 902 333 
1369 65 873 903 
1370 873 905 903 
1371 873 223 905 
1372 903 905 341 
1373 283 728 672 
1374 728 741 672 
1375 728 279 741 
1376 672 741 325 
1377 74 880 907 
1378 880 906 907 
1379 880 219 906 
1380 907 906 355 
1381 273 699 908 
1382 699 734 908 
1383 699 272 734 
1384 908 734 274 
1385 218 841 535 
1386 841 909 535 
1387 841 75 909 
1388 535 909 355 
1389 75 31 909 
1390 31 907 909 
1391 31 74 907 
1392 909 907 355 
1393 59 15 911 
1394 15 910 911 
1395 15 58 910 
1396 911 910 354 
1397 198 844 912 
1398 844 911 912 
1399 844 59 911 
1400 912 911 354 
1401 158 113 914 
1402 113 913 914 
1403 113 157 913 
1404 914 913 337 
1405 197 872 653 
1406 872 914 653 
1407 872 158 914 
1408 653 914 337 
1409 273 908 737 
1410 908 915 737 
1411 908 274 915 
1412 737 915 275 
1413 58 14 916 
1414 14 714 916 
1415 14 57 714 
1416 916 714 214 
1417 157 112 917 
1418 112 703 917 
1419 112 156 703 
1420 917 703 213 
1421 58 916 910 
1422 916 918 910 
1423 916 214 918 
1424 910 918 354 
1425 157 917 913 
1426 917 667 913 
1427 917 213 667 
1428 913 667 337 
1429 298 919 920 
1430 919 824 920 
1431 919 202 824 
1432 920 824 340 
1433 296 613 921 
1434 613 919 921 
1435 613 202 919 
1436 921 919 298 
1437 297 861 922 
1438 861 921 922 
1439 861 296 921 
1440 922 921 298 
1441 321 853 924 
1442 853 923 924 
1443 853 320 923 
1444 924 923 322 
1445 344 586 926 
1446 586 925 926 
1447 586 321 925 
1448 926 925 357 
1449 210 871 927 
1450 871 926 927 
1451 871 344 926 
1452 927 926 357 
1453 321 924 925 
1454 924 928 925 
1455 924 322 928 
1456 925 928 357 
1457 345 877 930 
1458 877 929 930 
1459 877 210 929 
1460 930 929 346 
1461 335 799 932 
1462 799 931 932 
1463 799 229 931 
1464 932 931 336 
1465 346 929 933 
1466 929 927 933 
1467 929 210 927 
1468 933 927 357 
1469 219 899 935 
1470 899 934 935 
1471 899 329 934 
1472 935 934 330 
1473 212 892 937 
1474 892 936 937 
1475 892 348 936 
1476 937 936 349 
1477 174 129 939 
1478 129 938 939 
1479 129 173 938 
1480 939 938 328 
1481 173 864 938 
1482 864 940 938 
1483 864 212 940 
1484 938 940 328 
1485 175 130 942 
1486 130 941 942 
1487 130 174 941 
1488 942 941 236 
1489 178 134 944 
1490 134 943 944 
1491 134 177 943 
1492 944 943 237 
1493 80 36 946 
1494 36 945 946 
1495 36 79 945 
1496 946 945 238 
1497 236 941 536 
1498 941 939 536 
1499 941 174 939 
1500 536 939 328 
1501 298 920 948 
1502 920 947 948 
1503 920 340 947 
1504 948 947 358 
1505 345 930 950 
1506 930 949 950 
1507 930 346 949 
1508 950 949 359 
1509 340 754 947 
1510 754 449 947 
1511 754 201 449 
1512 947 449 358 
1513 211 878 951 
1514 878 950 951 
1515 878 345 950 
1516 951 950 359 
1517 230 471 953 
1518 471 952 953 
1519 471 268 952 
1520 953 952 394 
1521 217 486 955 
1522 486 954 955 
1523 486 257 954 
1524 955 954 360 
1525 256 584 519 
1526 584 498 519 
1527 584 257 498 
1528 519 498 410 
1529 235 550 956 
1530 550 502 956 
1531 550 241 502 
1532 956 502 361 
1533 215 554 957 
1534 554 504 957 
1535 554 260 504 
1536 957 504 362 
1537 257 583 954 
1538 583 958 954 
1539 583 254 958 
1540 954 958 360 
1541 3 8 960 
1542 8 959 960 
1543 8 4 959 
1544 960 959 361 
1545 101 106 962 
1546 106 961 962 
1547 106 102 961 
1548 962 961 362 
1549 251 537 964 
1550 537 963 964 
1551 537 250 963 
1552 964 963 360 
1553 77 33 966 
1554 33 965 966 
1555 33 76 965 
1556 966 965 363 
1557 187 131 968 
1558 131 967 968 
1559 131 175 967 
1560 968 967 364 
1561 367 969 541 
1562 969 970 541 
1563 969 322 970 
1564 541 970 383 
1565 298 948 972 
1566 948 971 972 
1567 948 358 971 
1568 972 971 368 
1569 62 18 973 
1570 18 506 973 
1571 18 61 506 
1572 973 506 365 
1573 61 17 507 
1574 17 974 507 
1575 17 60 974 
1576 507 974 366 
1577 228 834 540 
1578 834 975 540 
1579 834 335 975 
1580 540 975 367 
1581 358 513 971 
1582 513 976 971 
1583 513 255 976 
1584 971 976 368 
1585 285 745 978 
1586 745 977 978 
1587 745 284 977 
1588 978 977 392 
1589 281 746 980 
1590 746 979 980 
1591 746 285 979 
1592 980 979 391 
1593 357 928 982 
1594 928 981 982 
1595 928 322 981 
1596 982 981 393 
1597 84 787 983 
1598 787 953 983 
1599 787 230 953 
1600 983 953 394 
1601 229 813 985 
1602 813 984 985 
1603 813 85 984 
1604 985 984 394 
1605 199 482 986 
1606 482 455 986 
1607 482 247 455 
1608 986 455 402 
1609 216 484 987 
1610 484 457 987 
1611 484 266 457 
1612 987 457 403 
1613 254 578 958 
1614 578 964 958 
1615 578 251 964 
1616 958 964 360 
1617 4 565 959 
1618 565 956 959 
1619 565 235 956 
1620 959 956 361 
1621 102 567 961 
1622 567 957 961 
1623 567 215 957 
1624 961 957 362 
1625 76 842 965 
1626 842 417 965 
1627 842 218 417 
1628 965 417 363 
1629 175 942 967 
1630 942 420 967 
1631 942 236 420 
1632 967 420 364 
1633 200 469 989 
1634 469 988 989 
1635 469 249 988 
1636 989 988 395 
1637 349 936 505 
1638 936 990 505 
1639 936 348 990 
1640 505 990 396 
1641 199 895 543 
1642 895 991 543 
1643 895 179 991 
1644 543 991 397 
1645 216 801 544 
1646 801 992 544 
1647 801 81 992 
1648 544 992 398 
1649 242 555 993 
1650 555 428 993 
1651 555 240 428 
1652 993 428 399 
1653 261 557 994 
1654 557 430 994 
1655 557 259 430 
1656 994 430 400 
1657 178 944 995 
1658 944 462 995 
1659 944 237 462 
1660 995 462 397 
1661 80 946 996 
1662 946 464 996 
1663 946 238 464 
1664 996 464 398 
1665 336 931 510 
1666 931 997 510 
1667 931 229 997 
1668 510 997 407 
1669 211 951 998 
1670 951 500 998 
1671 951 359 500 
1672 998 500 396 
1673 200 893 454 
1674 893 999 454 
1675 893 181 999 
1676 454 999 402 
1677 180 896 1000 
1678 896 986 1000 
1679 896 199 986 
1680 1000 986 402 
1681 230 786 456 
1682 786 1001 456 
1683 786 83 1001 
1684 456 1001 403 
1685 82 802 1002 
1686 802 987 1002 
1687 802 216 987 
1688 1002 987 403 
1689 355 906 529 
1690 906 1003 529 
1691 906 219 1003 
1692 529 1003 405 
1693 6 11 1005 
1694 11 1004 1005 
1695 11 2 1004 
1696 1005 1004 411 
1697 328 940 531 
1698 940 1006 531 
1699 940 212 1006 
1700 531 1006 406 
1701 104 109 1008 
1702 109 1007 1008 
1703 109 100 1007 
1704 1008 1007 412 
1705 2 45 1004 
1706 45 1009 1004 
1707 45 77 1009 
1708 1004 1009 411 
1709 100 143 1007 
1710 143 1010 1007 
1711 143 187 1010 
1712 1007 1010 412 
1713 184 140 1011 
1714 140 460 1011 
1715 140 183 460 
1716 1011 460 408 
1717 365 533 1012 
1718 533 978 1012 
1719 533 285 978 
1720 1012 978 392 
1721 285 534 979 
1722 534 1013 979 
1723 534 366 1013 
1724 979 1013 391 
1725 322 969 981 
1726 969 1014 981 
1727 969 367 1014 
1728 981 1014 393 
1729 222 843 1015 
1730 843 973 1015 
1731 843 62 973 
1732 1015 973 365 
1733 60 845 974 
1734 845 1016 974 
1735 845 198 1016 
1736 974 1016 366 
1737 335 932 975 
1738 932 1017 975 
1739 932 336 1017 
1740 975 1017 367 
1741 297 922 1018 
1742 922 972 1018 
1743 922 298 972 
1744 1018 972 368 
1745 183 139 458 
1746 139 1019 458 
1747 139 182 1019 
1748 458 1019 395 
1749 69 851 1020 
1750 851 520 1020 
1751 851 220 520 
1752 1020 520 410 
1753 359 949 1022 
1754 949 1021 1022 
1755 949 346 1021 
1756 1022 1021 409 
1757 369 1023 1025 
1758 1023 1024 1025 
1759 1023 222 1024 
1760 1025 1024 392 
1761 198 1026 1028 
1762 1026 1027 1028 
1763 1026 373 1027 
1764 1028 1027 391 
1765 374 1029 1031 
1766 1029 1030 1031 
1767 1029 297 1030 
1768 1031 1030 390 
1769 274 1032 1034 
1770 1032 1033 1034 
1771 1032 387 1033 
1772 1034 1033 389 
1773 387 1035 1033 
1774 1035 1036 1033 
1775 1035 356 1036 
1776 1033 1036 389 
1777 276 606 1038 
1778 606 1037 1038 
1779 606 282 1037 
1780 1038 1037 384 
1781 234 681 1040 
1782 681 1039 1040 
1783 681 323 1039 
1784 1040 1039 388 
1785 274 735 1032 
1786 735 1041 1032 
1787 735 276 1041 
1788 1032 1041 387 
1789 312 1042 1044 
1790 1042 1043 1044 
1791 1042 377 1043 
1792 1044 1043 378 
1793 377 1045 1043 
1794 1045 1046 1043 
1795 1045 343 1046 
1796 1043 1046 378 
1797 282 736 1048 
1798 736 1047 1048 
1799 736 280 1047 
1800 1048 1047 373 
1801 369 1049 1051 
1802 1049 1050 1051 
1803 1049 289 1050 
1804 1051 1050 370 
1805 287 750 1052 
1806 750 1049 1052 
1807 750 289 1049 
1808 1052 1049 369 
1809 289 785 1050 
1810 785 1053 1050 
1811 785 291 1053 
1812 1050 1053 370 
1813 370 1053 1055 
1814 1053 1054 1055 
1815 1053 291 1054 
1816 1055 1054 371 
1817 291 897 1054 
1818 897 1056 1054 
1819 897 293 1056 
1820 1054 1056 371 
1821 371 1056 1058 
1822 1056 1057 1058 
1823 1056 293 1057 
1824 1058 1057 372 
1825 308 742 1060 
1826 742 1059 1060 
1827 742 306 1059 
1828 1060 1059 375 
1829 293 890 1057 
1830 890 1061 1057 
1831 890 295 1061 
1832 1057 1061 372 
1833 310 756 1063 
1834 756 1062 1063 
1835 756 308 1062 
1836 1063 1062 376 
1837 308 1060 1062 
1838 1060 1064 1062 
1839 1060 375 1064 
1840 1062 1064 376 
1841 310 1063 1066 
1842 1063 1065 1066 
1843 1063 376 1065 
1844 1066 1065 377 
1845 312 778 1042 
1846 778 1066 1042 
1847 778 310 1066 
1848 1042 1066 377 
1849 324 678 1068 
1850 678 1067 1068 
1851 678 224 1067 
1852 1068 1067 380 
1853 331 791 1069 
1854 791 1023 1069 
1855 791 222 1023 
1856 1069 1023 369 
1857 333 820 1071 
1858 820 1070 1071 
1859 820 221 1070 
1860 1071 1070 374 
1861 331 1069 1072 
1862 1069 1051 1072 
1863 1069 369 1051 
1864 1072 1051 370 
1865 343 885 1046 
1866 885 1073 1046 
1867 885 226 1073 
1868 1046 1073 378 
1869 378 1073 1075 
1870 1073 1074 1075 
1871 1073 226 1074 
1872 1075 1074 379 
1873 226 784 1074 
1874 784 1076 1074 
1875 784 334 1076 
1876 1074 1076 379 
1877 223 806 1077 
1878 806 1072 1077 
1879 806 331 1072 
1880 1077 1072 370 
1881 379 1076 1079 
1882 1076 1078 1079 
1883 1076 334 1078 
1884 1079 1078 381 
1885 334 768 1078 
1886 768 1080 1078 
1887 768 227 1080 
1888 1078 1080 381 
1889 381 1080 1082 
1890 1080 1081 1082 
1891 1080 227 1081 
1892 1082 1081 382 
1893 223 1077 1083 
1894 1077 1055 1083 
1895 1077 370 1055 
1896 1083 1055 371 
1897 227 817 1081 
1898 817 1084 1081 
1899 817 339 1084 
1900 1081 1084 382 
1901 341 905 1085 
1902 905 1083 1085 
1903 905 223 1083 
1904 1085 1083 371 
1905 282 1048 1037 
1906 1048 1086 1037 
1907 1048 373 1086 
1908 1037 1086 384 
1909 341 1085 1087 
1910 1085 1058 1087 
1911 1085 371 1058 
1912 1087 1058 372 
1913 221 782 1088 
1914 782 1087 1088 
1915 782 341 1087 
1916 1088 1087 372 
1917 295 862 1089 
1918 862 1029 1089 
1919 862 297 1029 
1920 1089 1029 374 
1921 224 825 1091 
1922 825 1090 1091 
1923 825 338 1090 
1924 1091 1090 375 
1925 375 1090 1064 
1926 1090 1092 1064 
1927 1090 338 1092 
1928 1064 1092 376 
1929 338 794 1092 
1930 794 1093 1092 
1931 794 225 1093 
1932 1092 1093 376 
1933 198 912 1026 
1934 912 1094 1026 
1935 912 354 1094 
1936 1026 1094 373 
1937 376 1093 1065 
1938 1093 1095 1065 
1939 1093 225 1095 
1940 1065 1095 377 
1941 225 848 1095 
1942 848 1045 1095 
1943 848 343 1045 
1944 1095 1045 377 
1945 323 711 1097 
1946 711 1096 1097 
1947 711 232 1096 
1948 1097 1096 386 
1949 314 857 1098 
1950 857 1044 1098 
1951 857 312 1044 
1952 1098 1044 378 
1953 314 1098 1099 
1954 1098 1075 1099 
1955 1098 378 1075 
1956 1099 1075 379 
1957 306 725 1101 
1958 725 1100 1101 
1959 725 304 1100 
1960 1101 1100 380 
1961 316 827 1102 
1962 827 1099 1102 
1963 827 314 1099 
1964 1102 1099 379 
1965 316 1102 1103 
1966 1102 1079 1103 
1967 1102 379 1079 
1968 1103 1079 381 
1969 318 855 1104 
1970 855 1103 1104 
1971 855 316 1103 
1972 1104 1103 381 
1973 356 744 1036 
1974 744 1105 1036 
1975 744 234 1105 
1976 1036 1105 389 
1977 318 1104 1106 
1978 1104 1082 1106 
1979 1104 381 1082 
1980 1106 1082 382 
1981 276 1038 1041 
1982 1038 1107 1041 
1983 1038 384 1107 
1984 1041 1107 387 
1985 320 837 1108 
1986 837 1106 1108 
1987 837 318 1106 
1988 1108 1106 382 
1989 232 689 1110 
1990 689 1109 1110 
1991 689 324 1109 
1992 1110 1109 385 
1993 221 1088 1070 
1994 1088 1111 1070 
1995 1088 372 1111 
1996 1070 1111 374 
1997 372 1061 1111 
1998 1061 1089 1111 
1999 1061 295 1089 
2000 1111 1089 374 
2001 339 829 1112 
2002 829 542 1112 
2003 829 228 542 
2004 1112 542 383 
2005 234 1040 1105 
2006 1040 1113 1105 
2007 1040 388 1113 
2008 1105 1113 389 
2009 373 1094 1086 
2010 1094 1114 1086 
2011 1094 354 1114 
2012 1086 1114 384 
2013 224 1091 1067 
2014 1091 1115 1067 
2015 1091 375 1115 
2016 1067 1115 380 
2017 375 1059 1115 
2018 1059 1101 1115 
2019 1059 306 1101 
2020 1115 1101 380 
2021 354 918 1114 
2022 918 1116 1114 
2023 918 214 1116 
2024 1114 1116 384 
2025 320 1108 1118 
2026 1108 1117 1118 
2027 1108 382 1117 
2028 1118 1117 383 
2029 382 1084 1117 
2030 1084 1112 1117 
2031 1084 339 1112 
2032 1117 1112 383 
2033 380 1100 1120 
2034 1100 1119 1120 
2035 1100 304 1119 
2036 1120 1119 385 
2037 232 1110 1096 
2038 1110 1121 1096 
2039 1110 385 1121 
2040 1096 1121 386 
2041 324 1068 1109 
2042 1068 1120 1109 
2043 1068 380 1120 
2044 1109 1120 385 
2045 323 1097 1039 
2046 1097 1122 1039 
2047 1097 386 1122 
2048 1039 1122 388 
2049 304 718 1119 
2050 718 1123 1119 
2051 718 302 1123 
2052 1119 1123 385 
2053 385 1123 1121 
2054 1123 1124 1121 
2055 1123 302 1124 
2056 1121 1124 386 
2057 302 727 1124 
2058 727 1125 1124 
2059 727 300 1125 
2060 1124 1125 386 
2061 384 1116 1107 
2062 1116 1126 1107 
2063 1116 214 1126 
2064 1107 1126 387 
2065 386 1125 1122 
2066 1125 1127 1122 
2067 1125 300 1127 
2068 1122 1127 388 
2069 300 771 1127 
2070 771 1128 1127 
2071 771 275 1128 
2072 1127 1128 388 
2073 214 715 1126 
2074 715 1035 1126 
2075 715 356 1035 
2076 1126 1035 387 
2077 388 1128 1113 
2078 1128 1129 1113 
2079 1128 275 1129 
2080 1113 1129 389 
2081 275 915 1129 
2082 915 1034 1129 
2083 915 274 1034 
2084 1129 1034 389 
2085 322 923 970 
2086 923 1118 970 
2087 923 320 1118 
2088 970 1118 383 
2089 333 1071 1130 
2090 1071 1031 1130 
2091 1071 374 1031 
2092 1130 1031 390 
2093 287 1052 1131 
2094 1052 1025 1131 
2095 1052 369 1025 
2096 1131 1025 392 
2097 373 1047 1027 
2098 1047 1132 1027 
2099 1047 280 1132 
2100 1027 1132 391 
2101 220 904 1133 
2102 904 1130 1133 
2103 904 333 1130 
2104 1133 1130 390 
2105 280 722 1132 
2106 722 980 1132 
2107 722 281 980 
2108 1132 980 391 
2109 284 740 977 
2110 740 1131 977 
2111 740 287 1131 
2112 977 1131 392 
2113 346 933 1134 
2114 933 982 1134 
2115 933 357 982 
2116 1134 982 393 
2117 1 7 1136 
2118 7 1135 1136 
2119 7 3 1135 
2120 1136 1135 413 
2121 89 105 1138 
2122 105 1137 1138 
2123 105 101 1137 
2124 1138 1137 414 
2125 177 133 1139 
2126 133 1136 1139 
2127 133 1 1136 
2128 1139 1136 413 
2129 79 35 1140 
2130 35 1138 1140 
2131 35 89 1138 
2132 1140 1138 414 
2133 270 480 516 
2134 480 1022 516 
2135 480 359 1022 
2136 516 1022 409 
2137 330 934 514 
2138 934 1141 514 
2139 934 329 1141 
2140 514 1141 401 
2141 85 41 984 
2142 41 983 984 
2143 41 84 983 
2144 984 983 394 
2145 182 894 1019 
2146 894 989 1019 
2147 894 200 989 
2148 1019 989 395 
2149 249 546 988 
2150 546 465 988 
2151 546 252 465 
2152 988 465 395 
2153 222 1015 1024 
2154 1015 1012 1024 
2155 1015 365 1012 
2156 1024 1012 392 
2157 366 1016 1013 
2158 1016 1028 1013 
2159 1016 198 1028 
2160 1013 1028 391 
2161 367 1017 1014 
2162 1017 1142 1014 
2163 1017 336 1142 
2164 1014 1142 393 
2165 297 1018 1030 
2166 1018 1143 1030 
2167 1018 368 1143 
2168 1030 1143 390 
2169 330 451 1145 
2170 451 1144 1145 
2171 451 246 1144 
2172 1145 1144 405 
2173 349 447 1147 
2174 447 1146 1147 
2175 447 265 1146 
2176 1147 1146 406 
2177 265 572 1146 
2178 572 532 1146 
2179 572 264 532 
2180 1146 532 406 
2181 246 577 1144 
2182 577 530 1144 
2183 577 245 530 
2184 1144 530 405 
2185 329 773 1141 
2186 773 1148 1141 
2187 773 217 1148 
2188 1141 1148 401 
2189 229 985 997 
2190 985 1149 997 
2191 985 394 1149 
2192 997 1149 407 
2193 348 886 990 
2194 886 998 990 
2195 886 211 998 
2196 990 998 396 
2197 179 135 991 
2198 135 995 991 
2199 135 178 995 
2200 991 995 397 
2201 81 37 992 
2202 37 996 992 
2203 37 80 996 
2204 992 996 398 
2205 245 575 492 
2206 575 993 492 
2207 575 242 993 
2208 492 993 399 
2209 264 574 495 
2210 574 994 495 
2211 574 261 994 
2212 495 994 400 
2213 360 963 1150 
2214 963 515 1150 
2215 963 250 515 
2216 1150 515 401 
2217 220 1133 525 
2218 1133 1151 525 
2219 1133 390 1151 
2220 525 1151 404 
2221 255 582 1152 
2222 582 526 1152 
2223 582 256 526 
2224 1152 526 404 
2225 181 137 999 
2226 137 1000 999 
2227 137 180 1000 
2228 999 1000 402 
2229 83 39 1001 
2230 39 1002 1001 
2231 39 82 1002 
2232 1001 1002 403 
2233 219 935 1003 
2234 935 1145 1003 
2235 935 330 1145 
2236 1003 1145 405 
2237 212 937 1006 
2238 937 1147 1006 
2239 937 349 1147 
2240 1006 1147 406 
2241 268 539 1153 
2242 539 511 1153 
2243 539 270 511 
2244 1153 511 407 
2245 3 960 1135 
2246 960 1154 1135 
2247 960 361 1154 
2248 1135 1154 413 
2249 101 962 1137 
2250 962 1155 1137 
2251 962 362 1155 
2252 1137 1155 414 
2253 217 955 1148 
2254 955 1150 1148 
2255 955 360 1150 
2256 1148 1150 401 
2257 201 832 444 
2258 832 1011 444 
2259 832 184 1011 
2260 444 1011 408 
2261 77 966 1009 
2262 966 1156 1009 
2263 966 363 1156 
2264 1009 1156 411 
2265 187 968 1010 
2266 968 1157 1010 
2267 968 364 1157 
2268 1010 1157 412 
2269 70 26 497 
2270 26 1020 497 
2271 26 69 1020 
2272 497 1020 410 
2273 239 569 1158 
2274 569 1005 1158 
2275 569 6 1005 
2276 1158 1005 411 
2277 258 573 1159 
2278 573 1008 1159 
2279 573 104 1008 
2280 1159 1008 412 
2281 237 943 1160 
2282 943 1139 1160 
2283 943 177 1139 
2284 1160 1139 413 
2285 238 945 1161 
2286 945 1140 1161 
2287 945 79 1140 
2288 1161 1140 414 
2289 394 952 1149 
2290 952 1153 1149 
2291 952 268 1153 
2292 1149 1153 407 
2293 393 1142 1162 
2294 1142 517 1162 
2295 1142 336 517 
2296 1162 517 409 
2297 361 501 1154 
2298 501 1160 1154 
2299 501 237 1160 
2300 1154 1160 413 
2301 362 503 1155 
2302 503 1161 1155 
2303 503 238 1161 
2304 1155 1161 414 
2305 368 976 1163 
2306 976 1152 1163 
2307 976 255 1152 
2308 1163 1152 404 
2309 390 1143 1151 
2310 1143 1163 1151 
2311 1143 368 1163 
2312 1151 1163 404 
2313 363 488 1156 
2314 488 1158 1156 
2315 488 239 1158 
2316 1156 1158 411 
2317 364 490 1157 
2318 490 1159 1157 
2319 490 258 1159 
2320 1157 1159 412 
2321 346 1134 1021 
2322 1134 1162 1021 
2323 1134 393 1162 
2324 1021 1162 409 
$EndElements
