$MeshFormat
4.1 0 8
$EndMeshFormat
$Entities
4 4 1 0
1 -0.05 -0.875 0 0 
2 0.05 -0.875 0 0 
3 0.05 0 0 0 
4 -0.05 0 0 0 
1 -0.05 -0.875 0 0.05 -0.875 0 1 1 2 1 -2 
2 0.05 -0.875 0 0.05 0 0 1 2 2 2 -3 
3 -0.05 0 0 0.05 0 0 1 3 2 3 -4 
4 -0.05 -0.875 0 -0.05 0 0 1 4 2 4 -1 
1 -0.05 -0.875 0 0.05 0 0 1 1 4 1 2 3 4 
$EndEntities
$Nodes
9 316 1 316
0 1 0 1
1
-0.05 -0.875 0
0 2 0 1
2
0.05 -0.875 0
0 3 0 1
3
0.05 0 0
0 4 0 1
4
-0.05 0 0
1 1 0 4
5
6
7
8
-0.03000000000004607 -0.875 0
-0.0100000000001057 -0.875 0
0.009999999999893226 -0.875 0
0.02999999999994685 -0.875 0
1 2 0 43
9
10
11
12
13
14
15
16
17
18
19
20
21
22
23
24
25
26
27
28
29
30
31
32
33
34
35
36
37
38
39
40
41
42
43
44
45
46
47
48
49
50
51
0.05 -0.8551136363636457 0
0.05 -0.8352272727272914 0
0.05 -0.8153409090909371 0
0.05 -0.7954545454545828 0
0.05 -0.7755681818182285 0
0.05 -0.7556818181818743 0
0.05 -0.73579545454552 0
0.05 -0.7159090909091657 0
0.05 -0.6960227272728114 0
0.05 -0.6761363636364572 0
0.05 -0.6562500000001028 0
0.05 -0.6363636363637486 0
0.05 -0.6164772727273944 0
0.05 -0.5965909090910401 0
0.05 -0.5767045454546857 0
0.05 -0.5568181818183315 0
0.05 -0.5369318181819772 0
0.05 -0.5170454545456229 0
0.05 -0.4971590909092687 0
0.05 -0.4772727272729144 0
0.05 -0.4573863636365602 0
0.05 -0.437500000000195 0
0.05 -0.4176136363637254 0
0.05 -0.3977272727272451 0
0.05 -0.3778409090907647 0
0.05 -0.3579545454543769 0
0.05 -0.3380681818180226 0
0.05 -0.3181818181816684 0
0.05 -0.2982954545453141 0
0.05 -0.2784090909089598 0
0.05 -0.2585227272726055 0
0.05 -0.2386363636362512 0
0.05 -0.218749999999897 0
0.05 -0.1988636363635428 0
0.05 -0.1789772727271884 0
0.05 -0.1590909090908342 0
0.05 -0.1392045454544799 0
0.05 -0.1193181818181257 0
0.05 -0.09943181818177127 0
0.05 -0.07954545454541706 0
0.05 -0.05965909090906274 0
0.05 -0.03977272727270864 0
0.05 -0.01988636363635421 0
1 3 0 4
52
53
54
55
0.03000000000004607 0 0
0.0100000000001057 0 0
-0.009999999999893226 0 0
-0.02999999999994685 0 0
1 4 0 43
56
57
58
59
60
61
62
63
64
65
66
67
68
69
70
71
72
73
74
75
76
77
78
79
80
81
82
83
84
85
86
87
88
89
90
91
92
93
94
95
96
97
98
-0.05 -0.01988636363635853 0
-0.05 -0.03977272727271536 0
-0.05 -0.05965909090907361 0
-0.05 -0.07954545454543138 0
-0.05 -0.0994318181817853 0
-0.05 -0.1193181818181392 0
-0.05 -0.1392045454544932 0
-0.05 -0.1590909090908471 0
-0.05 -0.178977272727201 0
-0.05 -0.1988636363635549 0
-0.05 -0.2187499999999088 0
-0.05 -0.2386363636362627 0
-0.05 -0.2585227272726167 0
-0.05 -0.2784090909089705 0
-0.05 -0.2982954545453245 0
-0.05 -0.3181818181816784 0
-0.05 -0.3380681818180323 0
-0.05 -0.3579545454543862 0
-0.05 -0.3778409090907401 0
-0.05 -0.3977272727270941 0
-0.05 -0.4176136363634479 0
-0.05 -0.4374999999998128 0
-0.05 -0.457386363636282 0
-0.05 -0.477272727272762 0
-0.05 -0.497159090909242 0
-0.05 -0.5170454545456294 0
-0.05 -0.5369318181819833 0
-0.05 -0.5568181818183372 0
-0.05 -0.5767045454546912 0
-0.05 -0.5965909090910452 0
-0.05 -0.6164772727273991 0
-0.05 -0.6363636363637529 0
-0.05 -0.6562500000001068 0
-0.05 -0.6761363636364608 0
-0.05 -0.6960227272728147 0
-0.05 -0.7159090909091687 0
-0.05 -0.7357954545455225 0
-0.05 -0.7556818181818765 0
-0.05 -0.7755681818182304 0
-0.05 -0.7954545454545843 0
-0.05 -0.8153409090909381 0
-0.05 -0.8352272727272922 0
-0.05 -0.8551136363636461 0
2 1 0 218
99
100
101
102
103
104
105
106
107
108
109
110
111
112
113
114
115
116
117
118
119
120
121
122
123
124
125
126
127
128
129
130
131
132
133
134
135
136
137
138
139
140
141
142
143
144
145
146
147
148
149
150
151
152
153
154
155
156
157
158
159
160
161
162
163
164
165
166
167
168
169
170
171
172
173
174
175
176
177
178
179
180
181
182
183
184
185
186
187
188
189
190
191
192
193
194
195
196
197
198
199
200
201
202
203
204
205
206
207
208
209
210
211
212
213
214
215
216
217
218
219
220
221
222
223
224
225
226
227
228
229
230
231
232
233
234
235
236
237
238
239
240
241
242
243
244
245
246
247
248
249
250
251
252
253
254
255
256
257
258
259
260
261
262
263
264
265
266
267
268
269
270
271
272
273
274
275
276
277
278
279
280
281
282
283
284
285
286
287
288
289
290
291
292
293
294
295
296
297
298
299
300
301
302
303
304
305
306
307
308
309
310
311
312
313
314
315
316
-0.0327779039019773 -0.3678977272725524 0
0.03277790390202218 -0.5071022727274456 0
-0.0325114289807012 -0.8054626974669603 0
-0.03143294006660488 -0.767895445611024 0
-0.03232271762060019 -0.7056392631878863 0
-0.03277790390196911 -0.6661931818182794 0
-0.03277790390197394 -0.6264204545455716 0
-0.03277790390196795 -0.5468750000001508 0
-0.03277790390197871 -0.5866477272728634 0
-0.03277790390197224 -0.3281249999998404 0
-0.03277790390196942 -0.288352272727132 0
-0.03277790390196678 -0.2485795454544241 0
-0.03277790390196431 -0.2088068181817162 0
-0.03277790390203152 -0.169034090909024 0
-0.03340875846063704 -0.1292613636363162 0
-0.03314459752385998 -0.09012376834744243 0
-0.03277790390197484 -0.4076704545452836 0
0.03277790390202218 -0.4673295454547372 0
-0.000172193296344361 -0.01721344677046689 0
0.03251431012126892 -0.06953909026906835 0
0.03251593775480868 -0.7465539551071128 0
0.03211701872728179 -0.8269674999236108 0
0.03314395738006735 -0.7848773404141443 0
0.0322114988590772 -0.6885508579940645 0
0.03277790390202218 -0.6463068181819256 0
0.03277790390202218 -0.5667613636365083 0
0.03277790390202212 -0.6065340909092172 0
0.03277790390202212 -0.3480113636361997 0
0.03277790390202218 -0.3082386363634912 0
0.03277790390202208 -0.2684659090907828 0
0.03277790390202218 -0.2286931818180741 0
0.03318741706198286 -0.1886921729434985 0
0.03385305440230257 -0.149130090107309 0
0.03146547498742443 -0.1072871590934108 0
-0.03277790390196389 -0.4474431818180783 0
0.03277790390195302 -0.3877840909090049 0
-0.03277790390195648 -0.4872159090909999 0
0.03277790390196746 -0.4275568181819601 0
0.0001731141826090028 -0.8577882232699655 0
-0.03211702403699055 -0.04803622947052508 0
-0.03189283606219717 -0.8432994694931635 0
0.03189533520594998 -0.03170193620893889 0
0.01989366731955571 -0.858252784357002 0
0.01316988082446744 -0.8388539685510206 0
-0.009950585969705302 -0.8403875442275807 0
3.173477026670516e-05 -0.8231383130767107 0
-0.02005622603602396 -0.8236861438849215 0
-0.009915397771975773 -0.8058922051692938 0
0.009987614160122863 -0.8059043206104295 0
0.0001274155483704947 -0.7889614769372815 0
-0.02017331740153886 -0.7875075869219224 0
-0.010263528576025 -0.7713223327105669 0
-0.01689023284735715 -0.7519442651837461 0
0.002427039278095754 -0.7557188398731527 0
-0.004106010026820968 -0.7367718782115201 0
-0.02018730286266176 -0.7351001697031876 0
-0.0136400878848457 -0.7172002871846108 0
0.008867431384416197 -0.7218652125663172 0
0.002805112011694124 -0.7031021545877943 0
0.0213305994320386 -0.7065121923948483 0
0.03075222846311466 -0.7246750198354879 0
-0.01989440664631354 -0.01674821081465521 0
-0.01316822785383247 -0.03615179349588377 0
0.00995757670312809 -0.03461650001804833 0
-2.730120689072565e-05 -0.05187433718968049 0
0.02006352740523425 -0.05132087540045435 0
0.009926005378023302 -0.06912351295377878 0
-0.009981667581234897 -0.06911458406909286 0
-0.0001169779383635428 -0.08605579847384891 0
0.02018823202241413 -0.08753118215798039 0
0.01028627676211865 -0.1036928957941813 0
0.01636775008385524 -0.1227971953374993 0
-0.002407699304942479 -0.1192915942199243 0
0.004077833350781948 -0.1381514368187851 0
-0.03277790390195791 -0.4673295454545402 0
-0.01555580780394408 -0.4573863636363086 0
-0.01555580780394423 -0.437499999999884 0
0.001666288294066481 -0.4474431818180819 0
0.001666288294077197 -0.4275568181816886 0
0.001666288294067576 -0.4673295454544742 0
-0.0327779039019614 -0.5071022727274103 0
-0.01555580780394874 -0.497159090909206 0
-0.01555580780394497 -0.5170454545455905 0
0.001666288294051244 -0.507102272727404 0
0.001388223628420961 -0.5269886363637721 0
0.001666288294058614 -0.4872159090910298 0
-0.0156021519148815 -0.5369318181819593 0
0.001334155498994076 -0.5468750000001342 0
0.01738329350990249 -0.5369318181819573 0
-0.01561888728828945 -0.5568181818183213 0
0.001504468194481991 -0.5667613636364937 0
-0.01559329106794253 -0.5767045454546786 0
0.001513058739035183 -0.5866477272728499 0
-0.01558759327379022 -0.5965909090910336 0
0.001513678634340996 -0.6065340909092043 0
-0.01558654032554398 -0.6164772727273881 0
0.001513751210164081 -0.6264204545455583 0
-0.0155863527381967 -0.6363636363637419 0
0.001513762497271249 -0.6463068181819115 0
-0.01558631959245107 -0.6562500000000958 0
0.001299254193049175 -0.6660750224282956 0
-0.01577503970880948 -0.6758850780004471 0
-0.01555580780394229 -0.4176136363634845 0
0.001666288294082272 -0.4076704545452953 0
-0.01555580780394801 -0.3977272727271005 0
0.001666288294084562 -0.3877840909089081 0
-0.01555580780394718 -0.3778409090907263 0
0.001666288294084323 -0.367897727272533 0
-0.01555580780394591 -0.3579545454543633 0
0.001666288294083629 -0.3480113636361707 0
-0.01555580780394384 -0.338068181818005 0
0.001666288294085473 -0.3281249999998138 0
-0.01555580780394206 -0.3181818181816496 0
0.001666288294088677 -0.3082386363634588 0
-0.01555580780393953 -0.298295454545295 0
0.001666288294092115 -0.2883522727271045 0
-0.01555580780393716 -0.2784090909089409 0
0.001666288294096013 -0.2684659090907504 0
-0.01555580780393443 -0.2585227272725868 0
0.001666288294099731 -0.2485795454543962 0
-0.01555580780393212 -0.2386363636362328 0
0.001666288294103562 -0.2286931818180422 0
-0.01555580780392945 -0.2187499999998788 0
0.001666288294107235 -0.2088068181816881 0
-0.01555580780386858 -0.1988636363635078 0
0.0009667094595304925 -0.1887573962583088 0
0.03277790390193482 -0.4076704545454475 0
0.0327779039019577 -0.3678977272726023 0
-0.0327856279204593 -0.5269886363637872 0
-0.03277790390196897 -0.4275568181816592 0
-0.01555580780394683 -0.4772727272727598 0
-0.02994283293165802 -0.06909062226861125 0
0.03338106068769651 -0.7657371838281348 0
0.01420357102337767 -0.7740849096535258 0
0.03277790390202208 -0.5866477272728626 0
-0.03278987565774173 -0.5667613636365093 0
0.03310739489156497 -0.6664873856920192 0
0.03277790390202175 -0.2485795454544286 0
0.03315714628968464 -0.1687648228459418 0
0.01525163656870046 -0.1564284244660002 0
-0.03277790390197455 -0.3877840909089161 0
0.03277790390202202 -0.3281249999998456 0
0.03300519312383955 -0.2087929526811187 0
-0.03277790390202149 -0.6860795454546371 0
0.03277790390202255 -0.626420454545571 0
-0.03277790390196796 -0.2684659090907785 0
0.0327779039020223 -0.288352272727137 0
-0.03277790390199395 -0.1889204545453675 0
-0.03290312134830734 -0.1491477272726701 0
-0.01629296258925261 -0.1597683253791627 0
-0.03277790390197322 -0.3480113636361966 0
-0.03355494147086475 -0.1094808553306013 0
-0.01423169958152607 -0.1009926970756708 0
-0.03277790390196544 -0.2286931818180706 0
-0.0327779039020215 -0.6065340909092228 0
-0.03277790390197054 -0.3082386363634866 0
-0.03277790390202154 -0.6463068181819304 0
0.03277790390202221 -0.4872159090910916 0
0.0299431013206267 -0.8059160726297192 0
0.03277790390196899 -0.4474431818183485 0
-0.01607332807290307 -0.1790629990607396 0
-0.01529261349575249 -0.6956012934403205 0
-0.01442825403530696 -0.1383072648782169 0
0.01464292977303933 -0.7401233242344636 0
-0.01951687315607336 -0.8586561462157161 0
0.01951860828331356 -0.01634504044897787 0
0.03339157093350099 -0.8453476695360036 0
-0.03339167852419538 -0.0296537125118415 0
0.03356869456773455 -0.5482446896113169 0
0.03356869456774218 -0.5256189467526199 0
0.01634659846977806 -0.1776075831159862 0
0.0008640286721597213 -0.684689991028559 0
0.01722209609804715 -0.5767045454546854 0
0.01722209609805125 -0.5965909090910408 0
0.01722209609805479 -0.6164772727273943 0
0.01722209609805817 -0.6363636363637474 0
0.01722174614808005 -0.497159090909246 0
0.01719067674118488 -0.6562793407473926 0
0.01722209609805343 -0.3380681818180081 0
0.01722209609805626 -0.3181818181816553 0
0.01722209609805507 -0.2982954545452962 0
0.0172220960980516 -0.2784090909089346 0
0.01722209609805214 -0.2585227272725785 0
0.01722209609803624 -0.3579545454543661 0
0.0172220960980527 -0.2386363636362223 0
0.01722209609805453 -0.218749999999868 0
0.01706571708454879 -0.198567820530078 0
0.01722203777306325 -0.4772727272728605 0
0.01722209609801724 -0.377840909090753 0
0.01722209609800528 -0.3977272727271506 0
0.01722208637718736 -0.4573863636363993 0
0.01722209609800046 -0.4176136363635726 0
0.01722209447787799 -0.4375000000000085 0
0.01722364886514354 -0.6761363636364567 0
0.0172199963982659 -0.5170454545455908 0
0.01721999639825727 -0.5568181818183102 0
-0.0001073218370485354 -0.1691394922137864 0
0.03392014803992328 -0.1294122817857551 0
-0.03445326333917514 -0.7469832169027898 0
-0.01960627057065546 -0.1194667550281459 0
-0.03689209821578446 -0.8246032985326551 0
0.03689463454649063 -0.0503987440120466 0
0.01660099030460194 -0.8212174867933164 0
-0.01660057184444953 -0.05379898209027549 0
0.01943410770340358 -0.7564436425392779 0
-0.03704402456229679 -0.7855113636364077 0
0.03705430282401304 -0.08948863636359415 0
0.01488697756802264 -0.6917983119283445 0
0.01768158598546374 -0.7917280867561677 0
-0.01768505782543389 -0.08328316429477674 0
0.0206940844891127 -0.1391838857030698 0
-0.03425717160746075 -0.7239985334964095 0
-0.0008425848581445471 -0.1532122250025212 0
0.03715881836417571 -0.7062288152269077 0
0.03533288552211401 -0.860363034478362 0
-0.03533362190858461 -0.01463622492724684 0
-0.03543093108699495 -0.8604616403035867 0
0.03543093108699588 -0.01453835969641315 0
$EndNodes
$Elements
5 630 1 630
1 1 1 5
1 1 5 
2 5 6 
3 6 7 
4 7 8 
5 8 2 
1 2 1 44
6 2 9 
7 9 10 
8 10 11 
9 11 12 
10 12 13 
11 13 14 
12 14 15 
13 15 16 
14 16 17 
15 17 18 
16 18 19 
17 19 20 
18 20 21 
19 21 22 
20 22 23 
21 23 24 
22 24 25 
23 25 26 
24 26 27 
25 27 28 
26 28 29 
27 29 30 
28 30 31 
29 31 32 
30 32 33 
31 33 34 
32 34 35 
33 35 36 
34 36 37 
35 37 38 
36 38 39 
37 39 40 
38 40 41 
39 41 42 
40 42 43 
41 43 44 
42 44 45 
43 45 46 
44 46 47 
45 47 48 
46 48 49 
47 49 50 
48 50 51 
49 51 3 
1 3 1 5
50 3 52 
51 52 53 
52 53 54 
53 54 55 
54 55 4 
1 4 1 44
55 4 56 
56 56 57 
57 57 58 
58 58 59 
59 59 60 
60 60 61 
61 61 62 
62 62 63 
63 63 64 
64 64 65 
65 65 66 
66 66 67 
67 67 68 
68 68 69 
69 69 70 
70 70 71 
71 71 72 
72 72 73 
73 73 74 
74 74 75 
75 75 76 
76 76 77 
77 77 78 
78 78 79 
79 79 80 
80 80 81 
81 81 82 
82 82 83 
83 83 84 
84 84 85 
85 85 86 
86 86 87 
87 87 88 
88 88 89 
89 89 90 
90 90 91 
91 91 92 
92 92 93 
93 93 94 
94 94 95 
95 95 96 
96 96 97 
97 97 98 
98 98 1 
2 1 2 532
99 120 142 265 
100 138 161 266 
101 171 169 251 
102 152 150 232 
103 142 120 301 
104 161 138 302 
105 102 149 150 
106 132 168 169 
107 139 143 145 
108 140 162 164 
109 155 103 310 
110 169 167 251 
111 103 155 260 
112 150 148 232 
113 15 16 159 
114 149 102 304 
115 168 132 305 
116 92 297 310 
117 139 145 299 
118 140 164 300 
119 297 154 310 
120 154 155 310 
121 102 150 151 
122 132 169 170 
123 101 145 146 
124 118 164 165 
125 172 171 261 
126 101 146 149 
127 118 165 168 
128 119 15 159 
129 142 141 265 
130 161 160 266 
131 257 147 301 
132 230 166 302 
133 159 16 312 
134 261 171 298 
135 143 139 263 
136 162 140 264 
137 171 251 298 
138 267 25 268 
139 172 238 309 
140 155 157 260 
141 152 232 303 
142 238 172 311 
143 122 158 312 
144 165 167 168 
145 146 148 149 
146 168 167 169 
147 149 148 150 
148 158 122 306 
149 151 150 152 
150 170 169 171 
151 147 257 307 
152 166 230 308 
153 187 267 268 
154 120 257 301 
155 138 230 302 
156 151 152 153 
157 170 171 172 
158 130 269 285 
159 145 101 299 
160 164 118 300 
161 151 153 154 
162 137 141 142 
163 137 142 143 
164 117 160 161 
165 117 161 162 
166 143 142 144 
167 162 161 163 
168 137 7 141 
169 162 163 164 
170 117 54 160 
171 164 163 165 
172 6 7 137 
173 143 144 145 
174 53 54 117 
175 145 144 146 
176 7 8 141 
177 154 153 155 
178 165 166 167 
179 54 55 160 
180 165 163 166 
181 146 144 147 
182 146 147 148 
183 155 153 156 
184 155 156 157 
185 157 156 158 
186 158 156 159 
187 111 223 246 
188 111 221 223 
189 221 111 252 
190 219 221 252 
191 110 219 252 
192 110 217 219 
193 217 110 244 
194 215 217 244 
195 109 215 244 
196 109 213 215 
197 184 178 229 
198 213 109 254 
199 211 213 254 
200 104 198 255 
201 108 211 254 
202 108 209 211 
203 198 196 255 
204 196 105 255 
205 209 108 249 
206 207 209 249 
207 194 105 196 
208 105 194 253 
209 99 207 249 
210 99 205 207 
211 194 192 253 
212 192 107 253 
213 190 107 192 
214 178 174 229 
215 107 190 234 
216 190 188 234 
217 203 205 239 
218 188 106 234 
219 205 99 239 
220 185 106 188 
221 133 173 174 
222 174 173 229 
223 115 201 203 
224 133 78 173 
225 81 82 227 
226 115 203 239 
227 179 81 227 
228 201 115 228 
229 106 185 227 
230 77 78 133 
231 33 34 226 
232 34 126 226 
233 136 31 225 
234 32 33 134 
235 79 80 135 
236 80 81 179 
237 82 106 227 
238 135 80 179 
239 134 33 226 
240 77 133 228 
241 76 77 228 
242 30 31 136 
243 175 201 228 
244 173 135 229 
245 78 79 173 
246 79 135 173 
247 133 174 175 
248 133 175 228 
249 180 184 229 
250 115 76 228 
251 29 30 258 
252 135 180 229 
253 180 179 181 
254 31 32 225 
255 135 179 180 
256 32 134 225 
257 180 181 182 
258 116 29 258 
259 203 204 205 
260 205 204 206 
261 205 206 207 
262 182 181 183 
263 201 202 203 
264 207 206 208 
265 203 202 204 
266 183 181 185 
267 183 185 186 
268 207 208 209 
269 186 185 188 
270 176 174 178 
271 180 182 184 
272 175 177 201 
273 186 188 189 
274 181 179 227 
275 209 208 210 
276 30 136 258 
277 183 186 187 
278 189 188 190 
279 209 210 211 
280 189 190 191 
281 106 83 234 
282 90 103 242 
283 211 210 212 
284 83 84 234 
285 89 90 242 
286 85 86 253 
287 191 190 192 
288 87 88 255 
289 211 212 213 
290 107 85 253 
291 40 129 236 
292 39 40 236 
293 201 177 202 
294 14 119 231 
295 105 87 255 
296 193 192 194 
297 213 212 214 
298 123 20 243 
299 128 39 236 
300 191 192 193 
301 46 47 132 
302 72 73 249 
303 23 124 233 
304 36 127 240 
305 195 194 196 
306 44 131 237 
307 48 49 118 
308 73 99 249 
309 125 22 233 
310 35 36 240 
311 84 107 234 
312 69 109 244 
313 42 43 130 
314 44 45 131 
315 213 214 215 
316 129 41 241 
317 68 69 244 
318 19 123 235 
319 34 35 126 
320 104 89 242 
321 126 35 240 
322 217 216 218 
323 42 130 241 
324 88 89 104 
325 90 91 103 
326 43 44 237 
327 130 43 237 
328 217 218 219 
329 221 220 222 
330 38 39 128 
331 108 72 249 
332 10 11 120 
333 23 24 124 
334 26 27 100 
335 127 37 245 
336 41 42 241 
337 215 216 217 
338 17 18 122 
339 19 20 123 
340 36 37 127 
341 40 41 129 
342 110 68 244 
343 221 222 223 
344 22 23 233 
345 86 105 253 
346 219 218 220 
347 219 220 221 
348 84 85 107 
349 215 214 216 
350 61 62 113 
351 88 104 255 
352 197 198 199 
353 59 60 114 
354 65 66 111 
355 67 68 110 
356 64 65 246 
357 112 64 246 
358 73 74 99 
359 21 22 125 
360 62 63 247 
361 63 112 247 
362 113 62 247 
363 12 13 121 
364 14 15 119 
365 67 110 252 
366 63 64 112 
367 69 70 109 
368 37 38 245 
369 71 72 108 
370 38 128 245 
371 61 113 250 
372 65 111 246 
373 66 67 252 
374 195 196 197 
375 197 196 198 
376 114 60 250 
377 60 61 250 
378 111 66 252 
379 82 83 106 
380 86 87 105 
381 93 94 102 
382 95 96 101 
383 193 194 195 
384 121 13 231 
385 70 71 254 
386 18 19 235 
387 109 70 254 
388 71 108 254 
389 20 21 243 
390 13 14 231 
391 122 18 235 
392 21 125 243 
393 185 181 227 
394 12 121 257 
395 175 174 176 
396 120 11 257 
397 11 12 257 
398 27 28 256 
399 100 27 256 
400 74 75 239 
401 99 74 239 
402 175 176 177 
403 28 29 116 
404 75 76 115 
405 28 116 256 
406 75 115 239 
407 200 104 242 
408 198 104 200 
409 199 198 200 
410 223 222 224 
411 246 223 259 
412 112 246 259 
413 223 224 259 
414 247 112 248 
415 237 131 238 
416 248 112 259 
417 121 231 232 
418 114 250 251 
419 58 59 230 
420 59 114 230 
421 57 58 138 
422 97 98 139 
423 50 51 140 
424 138 58 230 
425 200 242 260 
426 247 248 261 
427 242 103 260 
428 113 247 261 
429 132 170 296 
430 119 159 262 
431 158 159 312 
432 137 143 263 
433 117 162 264 
434 159 156 262 
435 5 6 263 
436 52 53 264 
437 153 152 262 
438 9 10 265 
439 56 57 266 
440 269 224 285 
441 200 260 270 
442 24 25 267 
443 25 26 268 
444 130 237 269 
445 260 157 270 
446 187 186 294 
447 183 187 293 
448 259 224 295 
449 46 132 296 
450 131 45 296 
451 101 149 304 
452 118 168 305 
453 156 153 262 
454 6 137 263 
455 53 117 264 
456 10 120 265 
457 57 138 266 
458 102 151 297 
459 251 250 298 
460 101 96 299 
461 118 49 300 
462 144 142 301 
463 163 161 302 
464 97 139 299 
465 50 140 300 
466 238 131 309 
467 113 261 298 
468 102 94 304 
469 95 101 304 
470 132 47 305 
471 48 118 305 
472 257 121 307 
473 8 2 313 
474 230 114 308 
475 55 4 314 
476 2 9 313 
477 4 56 314 
478 91 92 310 
479 267 187 294 
480 187 268 293 
481 224 269 295 
482 124 24 267 
483 26 100 268 
484 237 238 269 
485 199 200 270 
486 92 93 297 
487 17 122 312 
488 261 248 311 
489 271 124 294 
490 100 275 293 
491 276 199 292 
492 176 289 291 
493 289 258 291 
494 178 184 286 
495 136 225 290 
496 176 178 289 
497 214 279 280 
498 279 245 280 
499 184 182 275 
500 271 191 272 
501 189 191 271 
502 191 193 272 
503 272 193 273 
504 193 195 273 
505 273 195 274 
506 210 208 277 
507 195 197 274 
508 212 210 278 
509 210 277 278 
510 212 278 279 
511 214 212 279 
512 226 126 282 
513 233 124 271 
514 235 123 276 
515 233 271 272 
516 245 128 280 
517 280 128 281 
518 128 236 281 
519 125 233 272 
520 281 236 283 
521 236 129 283 
522 283 129 284 
523 125 272 273 
524 129 241 284 
525 243 125 273 
526 184 275 286 
527 243 273 274 
528 123 243 274 
529 197 199 276 
530 126 240 277 
531 277 240 278 
532 240 127 278 
533 100 256 275 
534 278 127 279 
535 127 245 279 
536 225 134 288 
537 216 214 280 
538 216 280 281 
539 208 206 282 
540 218 216 281 
541 218 281 283 
542 220 218 283 
543 258 136 291 
544 220 283 284 
545 178 286 289 
546 222 220 284 
547 134 226 287 
548 123 274 276 
549 274 197 276 
550 241 130 285 
551 136 290 291 
552 275 256 286 
553 126 277 282 
554 277 208 282 
555 256 116 286 
556 222 284 285 
557 284 241 285 
558 282 206 287 
559 134 287 288 
560 226 282 287 
561 225 288 290 
562 206 204 287 
563 287 204 288 
564 204 202 288 
565 286 116 289 
566 288 202 290 
567 202 177 290 
568 116 258 289 
569 290 177 291 
570 177 176 291 
571 224 222 285 
572 235 276 292 
573 189 271 294 
574 275 182 293 
575 122 235 292 
576 182 183 293 
577 186 189 294 
578 248 259 295 
579 1 5 315 
580 3 52 316 
581 98 1 315 
582 51 3 316 
583 172 261 311 
584 232 231 303 
585 45 46 296 
586 93 102 297 
587 151 154 297 
588 124 267 294 
589 268 100 293 
590 269 238 295 
591 199 270 292 
592 232 148 307 
593 251 167 308 
594 167 166 308 
595 148 147 307 
596 231 119 303 
597 131 296 309 
598 250 113 298 
599 96 97 299 
600 49 50 300 
601 147 144 301 
602 166 163 302 
603 262 152 303 
604 122 292 306 
605 157 158 306 
606 94 95 304 
607 47 48 305 
608 121 232 307 
609 114 251 308 
610 170 172 309 
611 5 263 315 
612 52 264 316 
613 119 262 303 
614 103 91 310 
615 9 265 313 
616 56 266 314 
617 16 17 312 
618 141 8 313 
619 160 55 314 
620 139 98 315 
621 140 51 316 
622 296 170 309 
623 295 238 311 
624 263 139 315 
625 264 140 316 
626 270 157 306 
627 292 270 306 
628 265 141 313 
629 266 160 314 
630 248 295 311 
$EndElements
