$MeshFormat
2.2 0 8
$EndMeshFormat
$Nodes
   316
     1         0.0000000000        -0.0503215017        -0.4375492868
     2         0.0000000000         0.0496784983        -0.4375492868
     3         0.0000000000         0.0496784983         0.4374507132
     4         0.0000000000        -0.0503215017         0.4374507132
     5         0.0000000000        -0.0303215017        -0.4375492868
     6         0.0000000000        -0.0103215017        -0.4375492868
     7         0.0000000000         0.0096784983        -0.4375492868
     8         0.0000000000         0.0296784983        -0.4375492868
     9         0.0000000000         0.0496784983        -0.4176629232
    10         0.0000000000         0.0496784983        -0.3977765595
    11         0.0000000000         0.0496784983        -0.3778901959
    12         0.0000000000         0.0496784983        -0.3580038322
    13         0.0000000000         0.0496784983        -0.3381174686
    14         0.0000000000         0.0496784983        -0.3182311050
    15         0.0000000000         0.0496784983        -0.2983447413
    16         0.0000000000         0.0496784983        -0.2784583777
    17         0.0000000000         0.0496784983        -0.2585720141
    18         0.0000000000         0.0496784983        -0.2386856504
    19         0.0000000000         0.0496784983        -0.2187992868
    20         0.0000000000         0.0496784983        -0.1989129232
    21         0.0000000000         0.0496784983        -0.1790265595
    22         0.0000000000         0.0496784983        -0.1591401959
    23         0.0000000000         0.0496784983        -0.1392538322
    24         0.0000000000         0.0496784983        -0.1193674686
    25         0.0000000000         0.0496784983        -0.0994811050
    26         0.0000000000         0.0496784983        -0.0795947413
    27         0.0000000000         0.0496784983        -0.0597083777
    28         0.0000000000         0.0496784983        -0.0398220141
    29         0.0000000000         0.0496784983        -0.0199356504
    30         0.0000000000         0.0496784983        -0.0000492868
    31         0.0000000000         0.0496784983         0.0198370768
    32         0.0000000000         0.0496784983         0.0397234405
    33         0.0000000000         0.0496784983         0.0596098041
    34         0.0000000000         0.0496784983         0.0794961678
    35         0.0000000000         0.0496784983         0.0993825314
    36         0.0000000000         0.0496784983         0.1192688950
    37         0.0000000000         0.0496784983         0.1391552587
    38         0.0000000000         0.0496784983         0.1590416223
    39         0.0000000000         0.0496784983         0.1789279859
    40         0.0000000000         0.0496784983         0.1988143496
    41         0.0000000000         0.0496784983         0.2187007132
    42         0.0000000000         0.0496784983         0.2385870768
    43         0.0000000000         0.0496784983         0.2584734405
    44         0.0000000000         0.0496784983         0.2783598041
    45         0.0000000000         0.0496784983         0.2982461678
    46         0.0000000000         0.0496784983         0.3181325314
    47         0.0000000000         0.0496784983         0.3380188950
    48         0.0000000000         0.0496784983         0.3579052587
    49         0.0000000000         0.0496784983         0.3777916223
    50         0.0000000000         0.0496784983         0.3976779859
    51         0.0000000000         0.0496784983         0.4175643496
    52         0.0000000000         0.0296784983         0.4374507132
    53         0.0000000000         0.0096784983         0.4374507132
    54         0.0000000000        -0.0103215017         0.4374507132
    55         0.0000000000        -0.0303215017         0.4374507132
    56         0.0000000000        -0.0503215017         0.4175643496
    57         0.0000000000        -0.0503215017         0.3976779859
    58         0.0000000000        -0.0503215017         0.3777916223
    59         0.0000000000        -0.0503215017         0.3579052587
    60         0.0000000000        -0.0503215017         0.3380188950
    61         0.0000000000        -0.0503215017         0.3181325314
    62         0.0000000000        -0.0503215017         0.2982461678
    63         0.0000000000        -0.0503215017         0.2783598041
    64         0.0000000000        -0.0503215017         0.2584734405
    65         0.0000000000        -0.0503215017         0.2385870768
    66         0.0000000000        -0.0503215017         0.2187007132
    67         0.0000000000        -0.0503215017         0.1988143496
    68         0.0000000000        -0.0503215017         0.1789279859
    69         0.0000000000        -0.0503215017         0.1590416223
    70         0.0000000000        -0.0503215017         0.1391552587
    71         0.0000000000        -0.0503215017         0.1192688950
    72         0.0000000000        -0.0503215017         0.0993825314
    73         0.0000000000        -0.0503215017         0.0794961678
    74         0.0000000000        -0.0503215017         0.0596098041
    75         0.0000000000        -0.0503215017         0.0397234405
    76         0.0000000000        -0.0503215017         0.0198370768
    77         0.0000000000        -0.0503215017        -0.0000492868
    78         0.0000000000        -0.0503215017        -0.0199356504
    79         0.0000000000        -0.0503215017        -0.0398220141
    80         0.0000000000        -0.0503215017        -0.0597083777
    81         0.0000000000        -0.0503215017        -0.0795947413
    82         0.0000000000        -0.0503215017        -0.0994811050
    83         0.0000000000        -0.0503215017        -0.1193674686
    84         0.0000000000        -0.0503215017        -0.1392538322
    85         0.0000000000        -0.0503215017        -0.1591401959
    86         0.0000000000        -0.0503215017        -0.1790265595
    87         0.0000000000        -0.0503215017        -0.1989129232
    88         0.0000000000        -0.0503215017        -0.2187992868
    89         0.0000000000        -0.0503215017        -0.2386856504
    90         0.0000000000        -0.0503215017        -0.2585720141
    91         0.0000000000        -0.0503215017        -0.2784583777
    92         0.0000000000        -0.0503215017        -0.2983447413
    93         0.0000000000        -0.0503215017        -0.3182311050
    94         0.0000000000        -0.0503215017        -0.3381174686
    95         0.0000000000        -0.0503215017        -0.3580038322
    96         0.0000000000        -0.0503215017        -0.3778901959
    97         0.0000000000        -0.0503215017        -0.3977765595
    98         0.0000000000        -0.0503215017        -0.4176629232
    99         0.0000000000        -0.0330994056         0.0695529859
   100         0.0000000000         0.0324564022        -0.0696515595
   101         0.0000000000        -0.0328329307        -0.3680119843
   102         0.0000000000        -0.0317544417        -0.3304447324
   103         0.0000000000        -0.0326442193        -0.2681885500
   104         0.0000000000        -0.0330994056        -0.2287424686
   105         0.0000000000        -0.0330994056        -0.1889697413
   106         0.0000000000        -0.0330994056        -0.1094242868
   107         0.0000000000        -0.0330994056        -0.1491970141
   108         0.0000000000        -0.0330994056         0.1093257132
   109         0.0000000000        -0.0330994056         0.1490984405
   110         0.0000000000        -0.0330994056         0.1888711678
   111         0.0000000000        -0.0330994056         0.2286438950
   112         0.0000000000        -0.0330994056         0.2684166223
   113         0.0000000000        -0.0337302601         0.3081893496
   114         0.0000000000        -0.0334660992         0.3473269449
   115         0.0000000000        -0.0330994056         0.0297802587
   116         0.0000000000         0.0324564022        -0.0298788322
   117         0.0000000000        -0.0004936950         0.4202372664
   118         0.0000000000         0.0321928084         0.3679116229
   119         0.0000000000         0.0321944361        -0.3091032419
   120         0.0000000000         0.0317955171        -0.3895167867
   121         0.0000000000         0.0328224557        -0.3474266272
   122         0.0000000000         0.0318899972        -0.2511001448
   123         0.0000000000         0.0324564022        -0.2088561050
   124         0.0000000000         0.0324564022        -0.1293106504
   125         0.0000000000         0.0324564022        -0.1690833777
   126         0.0000000000         0.0324564022         0.0894393496
   127         0.0000000000         0.0324564022         0.1292120768
   128         0.0000000000         0.0324564022         0.1689848041
   129         0.0000000000         0.0324564022         0.2087575314
   130         0.0000000000         0.0328659154         0.2487585403
   131         0.0000000000         0.0335315527         0.2883206231
   132         0.0000000000         0.0311439733         0.3301635541
   133         0.0000000000        -0.0330994056        -0.0099924686
   134         0.0000000000         0.0324564022         0.0496666223
   135         0.0000000000        -0.0330994056        -0.0497651959
   136         0.0000000000         0.0324564022         0.0098938950
   137         0.0000000000        -0.0001483875        -0.4203375101
   138         0.0000000000        -0.0324385257         0.3894144837
   139         0.0000000000        -0.0322143377        -0.4058487563
   140         0.0000000000         0.0315738335         0.4057487770
   141         0.0000000000         0.0195721656        -0.4208020711
   142         0.0000000000         0.0128483792        -0.4014032553
   143         0.0000000000        -0.0102720876        -0.4029368310
   144         0.0000000000        -0.0002897669        -0.3856875999
   145         0.0000000000        -0.0203777277        -0.3862354307
   146         0.0000000000        -0.0102368994        -0.3684414920
   147         0.0000000000         0.0096661125        -0.3684536074
   148         0.0000000000        -0.0001940861        -0.3515107637
   149         0.0000000000        -0.0204948191        -0.3500568737
   150         0.0000000000        -0.0105850302        -0.3338716195
   151         0.0000000000        -0.0172117345        -0.3144935520
   152         0.0000000000         0.0021055376        -0.3182681267
   153         0.0000000000        -0.0044275117        -0.2993211650
   154         0.0000000000        -0.0205088045        -0.2976494565
   155         0.0000000000        -0.0139615896        -0.2797495740
   156         0.0000000000         0.0085459297        -0.2844144994
   157         0.0000000000         0.0024836103        -0.2656514414
   158         0.0000000000         0.0210090978        -0.2690614792
   159         0.0000000000         0.0304307268        -0.2872243066
   160         0.0000000000        -0.0202159083         0.4207025024
   161         0.0000000000        -0.0134897295         0.4012989197
   162         0.0000000000         0.0096360750         0.4028342132
   163         0.0000000000        -0.0003488029         0.3855763760
   164         0.0000000000         0.0197420257         0.3861298378
   165         0.0000000000         0.0096045037         0.3683272003
   166         0.0000000000        -0.0103031693         0.3683361291
   167         0.0000000000        -0.0004384796         0.3513949147
   168         0.0000000000         0.0198667303         0.3499195311
   169         0.0000000000         0.0099647751         0.3337578174
   170         0.0000000000         0.0160462484         0.3146535179
   171         0.0000000000        -0.0027292010         0.3181591190
   172         0.0000000000         0.0037563317         0.2992992764
   173         0.0000000000        -0.0330994056        -0.0298788322
   174         0.0000000000        -0.0158773095        -0.0199356504
   175         0.0000000000        -0.0158773095        -0.0000492868
   176         0.0000000000         0.0013447866        -0.0099924686
   177         0.0000000000         0.0013447866         0.0098938950
   178         0.0000000000         0.0013447866        -0.0298788322
   179         0.0000000000        -0.0330994056        -0.0696515595
   180         0.0000000000        -0.0158773095        -0.0597083777
   181         0.0000000000        -0.0158773095        -0.0795947413
   182         0.0000000000         0.0013447866        -0.0696515595
   183         0.0000000000         0.0010667220        -0.0895379232
   184         0.0000000000         0.0013447866        -0.0497651959
   185         0.0000000000        -0.0159236536        -0.0994811050
   186         0.0000000000         0.0010126538        -0.1094242868
   187         0.0000000000         0.0170617918        -0.0994811050
   188         0.0000000000        -0.0159403890        -0.1193674686
   189         0.0000000000         0.0011829665        -0.1293106504
   190         0.0000000000        -0.0159147927        -0.1392538322
   191         0.0000000000         0.0011915571        -0.1491970141
   192         0.0000000000        -0.0159090949        -0.1591401959
   193         0.0000000000         0.0011921770        -0.1690833777
   194         0.0000000000        -0.0159080420        -0.1790265595
   195         0.0000000000         0.0011922495        -0.1889697413
   196         0.0000000000        -0.0159078544        -0.1989129232
   197         0.0000000000         0.0011922608        -0.2088561050
   198         0.0000000000        -0.0159078213        -0.2187992868
   199         0.0000000000         0.0009777525        -0.2286243092
   200         0.0000000000        -0.0160965414        -0.2384343648
   201         0.0000000000        -0.0158773095         0.0198370768
   202         0.0000000000         0.0013447866         0.0297802587
   203         0.0000000000        -0.0158773095         0.0397234405
   204         0.0000000000         0.0013447866         0.0496666223
   205         0.0000000000        -0.0158773095         0.0596098041
   206         0.0000000000         0.0013447866         0.0695529859
   207         0.0000000000        -0.0158773095         0.0794961678
   208         0.0000000000         0.0013447866         0.0894393496
   209         0.0000000000        -0.0158773095         0.0993825314
   210         0.0000000000         0.0013447866         0.1093257132
   211         0.0000000000        -0.0158773095         0.1192688950
   212         0.0000000000         0.0013447866         0.1292120768
   213         0.0000000000        -0.0158773095         0.1391552587
   214         0.0000000000         0.0013447866         0.1490984405
   215         0.0000000000        -0.0158773095         0.1590416223
   216         0.0000000000         0.0013447866         0.1689848041
   217         0.0000000000        -0.0158773095         0.1789279859
   218         0.0000000000         0.0013447866         0.1888711678
   219         0.0000000000        -0.0158773095         0.1988143496
   220         0.0000000000         0.0013447866         0.2087575314
   221         0.0000000000        -0.0158773095         0.2187007132
   222         0.0000000000         0.0013447866         0.2286438950
   223         0.0000000000        -0.0158773095         0.2385870768
   224         0.0000000000         0.0006452078         0.2486933170
   225         0.0000000000         0.0324564022         0.0297802587
   226         0.0000000000         0.0324564022         0.0695529859
   227         0.0000000000        -0.0331071296        -0.0895379232
   228         0.0000000000        -0.0330994056         0.0098938950
   229         0.0000000000        -0.0158773095        -0.0398220141
   230         0.0000000000        -0.0302643346         0.3683600909
   231         0.0000000000         0.0330595590        -0.3282864706
   232         0.0000000000         0.0138820694        -0.3366341964
   233         0.0000000000         0.0324564022        -0.1491970141
   234         0.0000000000        -0.0331113773        -0.1293106504
   235         0.0000000000         0.0327858932        -0.2290366725
   236         0.0000000000         0.0324564022         0.1888711678
   237         0.0000000000         0.0328356446         0.2686858904
   238         0.0000000000         0.0149301349         0.2810222887
   239         0.0000000000        -0.0330994056         0.0496666223
   240         0.0000000000         0.0324564022         0.1093257132
   241         0.0000000000         0.0326836915         0.2286577605
   242         0.0000000000        -0.0330994056        -0.2486288322
   243         0.0000000000         0.0324564022        -0.1889697413
   244         0.0000000000        -0.0330994056         0.1689848041
   245         0.0000000000         0.0324564022         0.1490984405
   246         0.0000000000        -0.0330994056         0.2485302587
   247         0.0000000000        -0.0332246230         0.2883029859
   248         0.0000000000        -0.0166144643         0.2776823878
   249         0.0000000000        -0.0330994056         0.0894393496
   250         0.0000000000        -0.0338764431         0.3279698579
   251         0.0000000000        -0.0145532013         0.3364580161
   252         0.0000000000        -0.0330994056         0.2087575314
   253         0.0000000000        -0.0330994056        -0.1690833777
   254         0.0000000000        -0.0330994056         0.1292120768
   255         0.0000000000        -0.0330994056        -0.2088561050
   256         0.0000000000         0.0324564022        -0.0497651959
   257         0.0000000000         0.0296215996        -0.3684653594
   258         0.0000000000         0.0324564022        -0.0099924686
   259         0.0000000000        -0.0163948297         0.2583877141
   260         0.0000000000        -0.0156141152        -0.2581505802
   261         0.0000000000        -0.0147497557         0.2991434483
   262         0.0000000000         0.0143214281        -0.3026726110
   263         0.0000000000        -0.0198383748        -0.4212054330
   264         0.0000000000         0.0191971066         0.4211056728
   265         0.0000000000         0.0330700693        -0.4078969563
   266         0.0000000000        -0.0337131802         0.4077970007
   267         0.0000000000         0.0332471929        -0.1107939764
   268         0.0000000000         0.0332471929        -0.0881682335
   269         0.0000000000         0.0160250968         0.2598431301
   270         0.0000000000         0.0005425270        -0.2472392778
   271         0.0000000000         0.0169005944        -0.1392538322
   272         0.0000000000         0.0169005944        -0.1591401959
   273         0.0000000000         0.0169005944        -0.1790265595
   274         0.0000000000         0.0169005944        -0.1989129232
   275         0.0000000000         0.0169002445        -0.0597083777
   276         0.0000000000         0.0168691751        -0.2188286275
   277         0.0000000000         0.0169005944         0.0993825314
   278         0.0000000000         0.0169005944         0.1192688950
   279         0.0000000000         0.0169005944         0.1391552587
   280         0.0000000000         0.0169005944         0.1590416223
   281         0.0000000000         0.0169005944         0.1789279859
   282         0.0000000000         0.0169005944         0.0794961678
   283         0.0000000000         0.0169005944         0.1988143496
   284         0.0000000000         0.0169005944         0.2187007132
   285         0.0000000000         0.0167442154         0.2388828927
   286         0.0000000000         0.0169005361        -0.0398220141
   287         0.0000000000         0.0169005944         0.0596098041
   288         0.0000000000         0.0169005944         0.0397234405
   289         0.0000000000         0.0169005847        -0.0199356504
   290         0.0000000000         0.0169005944         0.0198370768
   291         0.0000000000         0.0169005928        -0.0000492868
   292         0.0000000000         0.0169021472        -0.2386856504
   293         0.0000000000         0.0168984947        -0.0795947413
   294         0.0000000000         0.0168984947        -0.1193674686
   295         0.0000000000        -0.0004288235         0.2683112210
   296         0.0000000000         0.0335986464         0.3080384314
   297         0.0000000000        -0.0347747650        -0.3095325037
   298         0.0000000000        -0.0199277722         0.3179839582
   299         0.0000000000        -0.0372135999        -0.3871525853
   300         0.0000000000         0.0365731329         0.3870519692
   301         0.0000000000         0.0162794886        -0.3837667736
   302         0.0000000000        -0.0169220735         0.3836517311
   303         0.0000000000         0.0191126060        -0.3189929293
   304         0.0000000000        -0.0373655262        -0.3480606504
   305         0.0000000000         0.0367328012         0.3479620768
   306         0.0000000000         0.0145654759        -0.2543475987
   307         0.0000000000         0.0173600843        -0.3542773735
   308         0.0000000000        -0.0180065595         0.3541675489
   309         0.0000000000         0.0203725828         0.2982668275
   310         0.0000000000        -0.0345786733        -0.2865478203
   311         0.0000000000        -0.0011640865         0.2842384882
   312         0.0000000000         0.0368373167        -0.2687781020
   313         0.0000000000         0.0350113838        -0.4229123213
   314         0.0000000000        -0.0356551236         0.4228144883
   315         0.0000000000        -0.0357524328        -0.4230109271
   316         0.0000000000         0.0351094294         0.4229123535
$EndNodes
$Elements
   532
     1 2 2       1      1   120   142   265
     2 2 2       1      1   138   161   266
     3 2 2       1      1   171   169   251
     4 2 2       1      1   152   150   232
     5 2 2       1      1   142   120   301
     6 2 2       1      1   161   138   302
     7 2 2       1      1   102   149   150
     8 2 2       1      1   132   168   169
     9 2 2       1      1   139   143   145
    10 2 2       1      1   140   162   164
    11 2 2       1      1   155   103   310
    12 2 2       1      1   169   167   251
    13 2 2       1      1   103   155   260
    14 2 2       1      1   150   148   232
    15 2 2       1      1    15    16   159
    16 2 2       1      1   149   102   304
    17 2 2       1      1   168   132   305
    18 2 2       1      1    92   297   310
    19 2 2       1      1   139   145   299
    20 2 2       1      1   140   164   300
    21 2 2       1      1   297   154   310
    22 2 2       1      1   154   155   310
    23 2 2       1      1   102   150   151
    24 2 2       1      1   132   169   170
    25 2 2       1      1   101   145   146
    26 2 2       1      1   118   164   165
    27 2 2       1      1   172   171   261
    28 2 2       1      1   101   146   149
    29 2 2       1      1   118   165   168
    30 2 2       1      1   119    15   159
    31 2 2       1      1   142   141   265
    32 2 2       1      1   161   160   266
    33 2 2       1      1   257   147   301
    34 2 2       1      1   230   166   302
    35 2 2       1      1   159    16   312
    36 2 2       1      1   261   171   298
    37 2 2       1      1   143   139   263
    38 2 2       1      1   162   140   264
    39 2 2       1      1   171   251   298
    40 2 2       1      1   267    25   268
    41 2 2       1      1   172   238   309
    42 2 2       1      1   155   157   260
    43 2 2       1      1   152   232   303
    44 2 2       1      1   238   172   311
    45 2 2       1      1   122   158   312
    46 2 2       1      1   165   167   168
    47 2 2       1      1   146   148   149
    48 2 2       1      1   168   167   169
    49 2 2       1      1   149   148   150
    50 2 2       1      1   158   122   306
    51 2 2       1      1   151   150   152
    52 2 2       1      1   170   169   171
    53 2 2       1      1   147   257   307
    54 2 2       1      1   166   230   308
    55 2 2       1      1   187   267   268
    56 2 2       1      1   120   257   301
    57 2 2       1      1   138   230   302
    58 2 2       1      1   151   152   153
    59 2 2       1      1   170   171   172
    60 2 2       1      1   130   269   285
    61 2 2       1      1   145   101   299
    62 2 2       1      1   164   118   300
    63 2 2       1      1   151   153   154
    64 2 2       1      1   137   141   142
    65 2 2       1      1   137   142   143
    66 2 2       1      1   117   160   161
    67 2 2       1      1   117   161   162
    68 2 2       1      1   143   142   144
    69 2 2       1      1   162   161   163
    70 2 2       1      1   137     7   141
    71 2 2       1      1   162   163   164
    72 2 2       1      1   117    54   160
    73 2 2       1      1   164   163   165
    74 2 2       1      1     6     7   137
    75 2 2       1      1   143   144   145
    76 2 2       1      1    53    54   117
    77 2 2       1      1   145   144   146
    78 2 2       1      1     7     8   141
    79 2 2       1      1   154   153   155
    80 2 2       1      1   165   166   167
    81 2 2       1      1    54    55   160
    82 2 2       1      1   165   163   166
    83 2 2       1      1   146   144   147
    84 2 2       1      1   146   147   148
    85 2 2       1      1   155   153   156
    86 2 2       1      1   155   156   157
    87 2 2       1      1   157   156   158
    88 2 2       1      1   158   156   159
    89 2 2       1      1   111   223   246
    90 2 2       1      1   111   221   223
    91 2 2       1      1   221   111   252
    92 2 2       1      1   219   221   252
    93 2 2       1      1   110   219   252
    94 2 2       1      1   110   217   219
    95 2 2       1      1   217   110   244
    96 2 2       1      1   215   217   244
    97 2 2       1      1   109   215   244
    98 2 2       1      1   109   213   215
    99 2 2       1      1   184   178   229
   100 2 2       1      1   213   109   254
   101 2 2       1      1   211   213   254
   102 2 2       1      1   104   198   255
   103 2 2       1      1   108   211   254
   104 2 2       1      1   108   209   211
   105 2 2       1      1   198   196   255
   106 2 2       1      1   196   105   255
   107 2 2       1      1   209   108   249
   108 2 2       1      1   207   209   249
   109 2 2       1      1   194   105   196
   110 2 2       1      1   105   194   253
   111 2 2       1      1    99   207   249
   112 2 2       1      1    99   205   207
   113 2 2       1      1   194   192   253
   114 2 2       1      1   192   107   253
   115 2 2       1      1   190   107   192
   116 2 2       1      1   178   174   229
   117 2 2       1      1   107   190   234
   118 2 2       1      1   190   188   234
   119 2 2       1      1   203   205   239
   120 2 2       1      1   188   106   234
   121 2 2       1      1   205    99   239
   122 2 2       1      1   185   106   188
   123 2 2       1      1   133   173   174
   124 2 2       1      1   174   173   229
   125 2 2       1      1   115   201   203
   126 2 2       1      1   133    78   173
   127 2 2       1      1    81    82   227
   128 2 2       1      1   115   203   239
   129 2 2       1      1   179    81   227
   130 2 2       1      1   201   115   228
   131 2 2       1      1   106   185   227
   132 2 2       1      1    77    78   133
   133 2 2       1      1    33    34   226
   134 2 2       1      1    34   126   226
   135 2 2       1      1   136    31   225
   136 2 2       1      1    32    33   134
   137 2 2       1      1    79    80   135
   138 2 2       1      1    80    81   179
   139 2 2       1      1    82   106   227
   140 2 2       1      1   135    80   179
   141 2 2       1      1   134    33   226
   142 2 2       1      1    77   133   228
   143 2 2       1      1    76    77   228
   144 2 2       1      1    30    31   136
   145 2 2       1      1   175   201   228
   146 2 2       1      1   173   135   229
   147 2 2       1      1    78    79   173
   148 2 2       1      1    79   135   173
   149 2 2       1      1   133   174   175
   150 2 2       1      1   133   175   228
   151 2 2       1      1   180   184   229
   152 2 2       1      1   115    76   228
   153 2 2       1      1    29    30   258
   154 2 2       1      1   135   180   229
   155 2 2       1      1   180   179   181
   156 2 2       1      1    31    32   225
   157 2 2       1      1   135   179   180
   158 2 2       1      1    32   134   225
   159 2 2       1      1   180   181   182
   160 2 2       1      1   116    29   258
   161 2 2       1      1   203   204   205
   162 2 2       1      1   205   204   206
   163 2 2       1      1   205   206   207
   164 2 2       1      1   182   181   183
   165 2 2       1      1   201   202   203
   166 2 2       1      1   207   206   208
   167 2 2       1      1   203   202   204
   168 2 2       1      1   183   181   185
   169 2 2       1      1   183   185   186
   170 2 2       1      1   207   208   209
   171 2 2       1      1   186   185   188
   172 2 2       1      1   176   174   178
   173 2 2       1      1   180   182   184
   174 2 2       1      1   175   177   201
   175 2 2       1      1   186   188   189
   176 2 2       1      1   181   179   227
   177 2 2       1      1   209   208   210
   178 2 2       1      1    30   136   258
   179 2 2       1      1   183   186   187
   180 2 2       1      1   189   188   190
   181 2 2       1      1   209   210   211
   182 2 2       1      1   189   190   191
   183 2 2       1      1   106    83   234
   184 2 2       1      1    90   103   242
   185 2 2       1      1   211   210   212
   186 2 2       1      1    83    84   234
   187 2 2       1      1    89    90   242
   188 2 2       1      1    85    86   253
   189 2 2       1      1   191   190   192
   190 2 2       1      1    87    88   255
   191 2 2       1      1   211   212   213
   192 2 2       1      1   107    85   253
   193 2 2       1      1    40   129   236
   194 2 2       1      1    39    40   236
   195 2 2       1      1   201   177   202
   196 2 2       1      1    14   119   231
   197 2 2       1      1   105    87   255
   198 2 2       1      1   193   192   194
   199 2 2       1      1   213   212   214
   200 2 2       1      1   123    20   243
   201 2 2       1      1   128    39   236
   202 2 2       1      1   191   192   193
   203 2 2       1      1    46    47   132
   204 2 2       1      1    72    73   249
   205 2 2       1      1    23   124   233
   206 2 2       1      1    36   127   240
   207 2 2       1      1   195   194   196
   208 2 2       1      1    44   131   237
   209 2 2       1      1    48    49   118
   210 2 2       1      1    73    99   249
   211 2 2       1      1   125    22   233
   212 2 2       1      1    35    36   240
   213 2 2       1      1    84   107   234
   214 2 2       1      1    69   109   244
   215 2 2       1      1    42    43   130
   216 2 2       1      1    44    45   131
   217 2 2       1      1   213   214   215
   218 2 2       1      1   129    41   241
   219 2 2       1      1    68    69   244
   220 2 2       1      1    19   123   235
   221 2 2       1      1    34    35   126
   222 2 2       1      1   104    89   242
   223 2 2       1      1   126    35   240
   224 2 2       1      1   217   216   218
   225 2 2       1      1    42   130   241
   226 2 2       1      1    88    89   104
   227 2 2       1      1    90    91   103
   228 2 2       1      1    43    44   237
   229 2 2       1      1   130    43   237
   230 2 2       1      1   217   218   219
   231 2 2       1      1   221   220   222
   232 2 2       1      1    38    39   128
   233 2 2       1      1   108    72   249
   234 2 2       1      1    10    11   120
   235 2 2       1      1    23    24   124
   236 2 2       1      1    26    27   100
   237 2 2       1      1   127    37   245
   238 2 2       1      1    41    42   241
   239 2 2       1      1   215   216   217
   240 2 2       1      1    17    18   122
   241 2 2       1      1    19    20   123
   242 2 2       1      1    36    37   127
   243 2 2       1      1    40    41   129
   244 2 2       1      1   110    68   244
   245 2 2       1      1   221   222   223
   246 2 2       1      1    22    23   233
   247 2 2       1      1    86   105   253
   248 2 2       1      1   219   218   220
   249 2 2       1      1   219   220   221
   250 2 2       1      1    84    85   107
   251 2 2       1      1   215   214   216
   252 2 2       1      1    61    62   113
   253 2 2       1      1    88   104   255
   254 2 2       1      1   197   198   199
   255 2 2       1      1    59    60   114
   256 2 2       1      1    65    66   111
   257 2 2       1      1    67    68   110
   258 2 2       1      1    64    65   246
   259 2 2       1      1   112    64   246
   260 2 2       1      1    73    74    99
   261 2 2       1      1    21    22   125
   262 2 2       1      1    62    63   247
   263 2 2       1      1    63   112   247
   264 2 2       1      1   113    62   247
   265 2 2       1      1    12    13   121
   266 2 2       1      1    14    15   119
   267 2 2       1      1    67   110   252
   268 2 2       1      1    63    64   112
   269 2 2       1      1    69    70   109
   270 2 2       1      1    37    38   245
   271 2 2       1      1    71    72   108
   272 2 2       1      1    38   128   245
   273 2 2       1      1    61   113   250
   274 2 2       1      1    65   111   246
   275 2 2       1      1    66    67   252
   276 2 2       1      1   195   196   197
   277 2 2       1      1   197   196   198
   278 2 2       1      1   114    60   250
   279 2 2       1      1    60    61   250
   280 2 2       1      1   111    66   252
   281 2 2       1      1    82    83   106
   282 2 2       1      1    86    87   105
   283 2 2       1      1    93    94   102
   284 2 2       1      1    95    96   101
   285 2 2       1      1   193   194   195
   286 2 2       1      1   121    13   231
   287 2 2       1      1    70    71   254
   288 2 2       1      1    18    19   235
   289 2 2       1      1   109    70   254
   290 2 2       1      1    71   108   254
   291 2 2       1      1    20    21   243
   292 2 2       1      1    13    14   231
   293 2 2       1      1   122    18   235
   294 2 2       1      1    21   125   243
   295 2 2       1      1   185   181   227
   296 2 2       1      1    12   121   257
   297 2 2       1      1   175   174   176
   298 2 2       1      1   120    11   257
   299 2 2       1      1    11    12   257
   300 2 2       1      1    27    28   256
   301 2 2       1      1   100    27   256
   302 2 2       1      1    74    75   239
   303 2 2       1      1    99    74   239
   304 2 2       1      1   175   176   177
   305 2 2       1      1    28    29   116
   306 2 2       1      1    75    76   115
   307 2 2       1      1    28   116   256
   308 2 2       1      1    75   115   239
   309 2 2       1      1   200   104   242
   310 2 2       1      1   198   104   200
   311 2 2       1      1   199   198   200
   312 2 2       1      1   223   222   224
   313 2 2       1      1   246   223   259
   314 2 2       1      1   112   246   259
   315 2 2       1      1   223   224   259
   316 2 2       1      1   247   112   248
   317 2 2       1      1   237   131   238
   318 2 2       1      1   248   112   259
   319 2 2       1      1   121   231   232
   320 2 2       1      1   114   250   251
   321 2 2       1      1    58    59   230
   322 2 2       1      1    59   114   230
   323 2 2       1      1    57    58   138
   324 2 2       1      1    97    98   139
   325 2 2       1      1    50    51   140
   326 2 2       1      1   138    58   230
   327 2 2       1      1   200   242   260
   328 2 2       1      1   247   248   261
   329 2 2       1      1   242   103   260
   330 2 2       1      1   113   247   261
   331 2 2       1      1   132   170   296
   332 2 2       1      1   119   159   262
   333 2 2       1      1   158   159   312
   334 2 2       1      1   137   143   263
   335 2 2       1      1   117   162   264
   336 2 2       1      1   159   156   262
   337 2 2       1      1     5     6   263
   338 2 2       1      1    52    53   264
   339 2 2       1      1   153   152   262
   340 2 2       1      1     9    10   265
   341 2 2       1      1    56    57   266
   342 2 2       1      1   269   224   285
   343 2 2       1      1   200   260   270
   344 2 2       1      1    24    25   267
   345 2 2       1      1    25    26   268
   346 2 2       1      1   130   237   269
   347 2 2       1      1   260   157   270
   348 2 2       1      1   187   186   294
   349 2 2       1      1   183   187   293
   350 2 2       1      1   259   224   295
   351 2 2       1      1    46   132   296
   352 2 2       1      1   131    45   296
   353 2 2       1      1   101   149   304
   354 2 2       1      1   118   168   305
   355 2 2       1      1   156   153   262
   356 2 2       1      1     6   137   263
   357 2 2       1      1    53   117   264
   358 2 2       1      1    10   120   265
   359 2 2       1      1    57   138   266
   360 2 2       1      1   102   151   297
   361 2 2       1      1   251   250   298
   362 2 2       1      1   101    96   299
   363 2 2       1      1   118    49   300
   364 2 2       1      1   144   142   301
   365 2 2       1      1   163   161   302
   366 2 2       1      1    97   139   299
   367 2 2       1      1    50   140   300
   368 2 2       1      1   238   131   309
   369 2 2       1      1   113   261   298
   370 2 2       1      1   102    94   304
   371 2 2       1      1    95   101   304
   372 2 2       1      1   132    47   305
   373 2 2       1      1    48   118   305
   374 2 2       1      1   257   121   307
   375 2 2       1      1     8     2   313
   376 2 2       1      1   230   114   308
   377 2 2       1      1    55     4   314
   378 2 2       1      1     2     9   313
   379 2 2       1      1     4    56   314
   380 2 2       1      1    91    92   310
   381 2 2       1      1   267   187   294
   382 2 2       1      1   187   268   293
   383 2 2       1      1   224   269   295
   384 2 2       1      1   124    24   267
   385 2 2       1      1    26   100   268
   386 2 2       1      1   237   238   269
   387 2 2       1      1   199   200   270
   388 2 2       1      1    92    93   297
   389 2 2       1      1    17   122   312
   390 2 2       1      1   261   248   311
   391 2 2       1      1   271   124   294
   392 2 2       1      1   100   275   293
   393 2 2       1      1   276   199   292
   394 2 2       1      1   176   289   291
   395 2 2       1      1   289   258   291
   396 2 2       1      1   178   184   286
   397 2 2       1      1   136   225   290
   398 2 2       1      1   176   178   289
   399 2 2       1      1   214   279   280
   400 2 2       1      1   279   245   280
   401 2 2       1      1   184   182   275
   402 2 2       1      1   271   191   272
   403 2 2       1      1   189   191   271
   404 2 2       1      1   191   193   272
   405 2 2       1      1   272   193   273
   406 2 2       1      1   193   195   273
   407 2 2       1      1   273   195   274
   408 2 2       1      1   210   208   277
   409 2 2       1      1   195   197   274
   410 2 2       1      1   212   210   278
   411 2 2       1      1   210   277   278
   412 2 2       1      1   212   278   279
   413 2 2       1      1   214   212   279
   414 2 2       1      1   226   126   282
   415 2 2       1      1   233   124   271
   416 2 2       1      1   235   123   276
   417 2 2       1      1   233   271   272
   418 2 2       1      1   245   128   280
   419 2 2       1      1   280   128   281
   420 2 2       1      1   128   236   281
   421 2 2       1      1   125   233   272
   422 2 2       1      1   281   236   283
   423 2 2       1      1   236   129   283
   424 2 2       1      1   283   129   284
   425 2 2       1      1   125   272   273
   426 2 2       1      1   129   241   284
   427 2 2       1      1   243   125   273
   428 2 2       1      1   184   275   286
   429 2 2       1      1   243   273   274
   430 2 2       1      1   123   243   274
   431 2 2       1      1   197   199   276
   432 2 2       1      1   126   240   277
   433 2 2       1      1   277   240   278
   434 2 2       1      1   240   127   278
   435 2 2       1      1   100   256   275
   436 2 2       1      1   278   127   279
   437 2 2       1      1   127   245   279
   438 2 2       1      1   225   134   288
   439 2 2       1      1   216   214   280
   440 2 2       1      1   216   280   281
   441 2 2       1      1   208   206   282
   442 2 2       1      1   218   216   281
   443 2 2       1      1   218   281   283
   444 2 2       1      1   220   218   283
   445 2 2       1      1   258   136   291
   446 2 2       1      1   220   283   284
   447 2 2       1      1   178   286   289
   448 2 2       1      1   222   220   284
   449 2 2       1      1   134   226   287
   450 2 2       1      1   123   274   276
   451 2 2       1      1   274   197   276
   452 2 2       1      1   241   130   285
   453 2 2       1      1   136   290   291
   454 2 2       1      1   275   256   286
   455 2 2       1      1   126   277   282
   456 2 2       1      1   277   208   282
   457 2 2       1      1   256   116   286
   458 2 2       1      1   222   284   285
   459 2 2       1      1   284   241   285
   460 2 2       1      1   282   206   287
   461 2 2       1      1   134   287   288
   462 2 2       1      1   226   282   287
   463 2 2       1      1   225   288   290
   464 2 2       1      1   206   204   287
   465 2 2       1      1   287   204   288
   466 2 2       1      1   204   202   288
   467 2 2       1      1   286   116   289
   468 2 2       1      1   288   202   290
   469 2 2       1      1   202   177   290
   470 2 2       1      1   116   258   289
   471 2 2       1      1   290   177   291
   472 2 2       1      1   177   176   291
   473 2 2       1      1   224   222   285
   474 2 2       1      1   235   276   292
   475 2 2       1      1   189   271   294
   476 2 2       1      1   275   182   293
   477 2 2       1      1   122   235   292
   478 2 2       1      1   182   183   293
   479 2 2       1      1   186   189   294
   480 2 2       1      1   248   259   295
   481 2 2       1      1     1     5   315
   482 2 2       1      1     3    52   316
   483 2 2       1      1    98     1   315
   484 2 2       1      1    51     3   316
   485 2 2       1      1   172   261   311
   486 2 2       1      1   232   231   303
   487 2 2       1      1    45    46   296
   488 2 2       1      1    93   102   297
   489 2 2       1      1   151   154   297
   490 2 2       1      1   124   267   294
   491 2 2       1      1   268   100   293
   492 2 2       1      1   269   238   295
   493 2 2       1      1   199   270   292
   494 2 2       1      1   232   148   307
   495 2 2       1      1   251   167   308
   496 2 2       1      1   167   166   308
   497 2 2       1      1   148   147   307
   498 2 2       1      1   231   119   303
   499 2 2       1      1   131   296   309
   500 2 2       1      1   250   113   298
   501 2 2       1      1    96    97   299
   502 2 2       1      1    49    50   300
   503 2 2       1      1   147   144   301
   504 2 2       1      1   166   163   302
   505 2 2       1      1   262   152   303
   506 2 2       1      1   122   292   306
   507 2 2       1      1   157   158   306
   508 2 2       1      1    94    95   304
   509 2 2       1      1    47    48   305
   510 2 2       1      1   121   232   307
   511 2 2       1      1   114   251   308
   512 2 2       1      1   170   172   309
   513 2 2       1      1     5   263   315
   514 2 2       1      1    52   264   316
   515 2 2       1      1   119   262   303
   516 2 2       1      1   103    91   310
   517 2 2       1      1     9   265   313
   518 2 2       1      1    56   266   314
   519 2 2       1      1    16    17   312
   520 2 2       1      1   141     8   313
   521 2 2       1      1   160    55   314
   522 2 2       1      1   139    98   315
   523 2 2       1      1   140    51   316
   524 2 2       1      1   296   170   309
   525 2 2       1      1   295   238   311
   526 2 2       1      1   263   139   315
   527 2 2       1      1   264   140   316
   528 2 2       1      1   270   157   306
   529 2 2       1      1   292   270   306
   530 2 2       1      1   265   141   313
   531 2 2       1      1   266   160   314
   532 2 2       1      1   248   295   311
$EndElements
$NodeData
1
"omega"
1
 0.0
3
0
1
   316
     1        -0.0190000090
     2         0.0193215466
     3        -0.0192764091
     4         0.0190353112
     5        -0.0109197330
     6        -0.0034811831
     7         0.0038020591
     8         0.0112397961
     9         0.0196456077
    10         0.0192893277
    11         0.0186316215
    12         0.0178287636
    13         0.0169225835
    14         0.0159705501
    15         0.0149956899
    16         0.0140325039
    17         0.0130129127
    18         0.0120307302
    19         0.0110276761
    20         0.0100282587
    21         0.0090279456
    22         0.0080274035
    23         0.0070268007
    24         0.0060278709
    25         0.0050256911
    26         0.0040234780
    27         0.0030244531
    28         0.0020237035
    29         0.0010229235
    30         0.0000221801
    31        -0.0009785443
    32        -0.0019792592
    33        -0.0029799674
    34        -0.0039806680
    35        -0.0049813565
    36        -0.0059820241
    37        -0.0069826541
    38        -0.0079832173
    39        -0.0089836648
    40        -0.0099838947
    41        -0.0109832918
    42        -0.0119828171
    43        -0.0129801914
    44        -0.0139684103
    45        -0.0149575444
    46        -0.0159383464
    47        -0.0168636060
    48        -0.0177843540
    49        -0.0185845598
    50        -0.0192563758
    51        -0.0195931656
    52        -0.0111980993
    53        -0.0037615160
    54         0.0035197666
    55         0.0109555357
    56         0.0193721550
    57         0.0190286609
    58         0.0183837245
    59         0.0175936150
    60         0.0167005961
    61         0.0157636732
    62         0.0148023882
    63         0.0138320064
    64         0.0128511452
    65         0.0118671280
    66         0.0108817228
    67         0.0098951207
    68         0.0089078551
    69         0.0079202609
    70         0.0069325053
    71         0.0059446685
    72         0.0049567898
    73         0.0039688889
    74         0.0029809758
    75         0.0019930553
    76         0.0010051295
    77         0.0000171996
    78        -0.0009707319
    79        -0.0019586544
    80        -0.0029465385
    81        -0.0039343633
    82        -0.0049222862
    83        -0.0059101597
    84        -0.0068980729
    85        -0.0078858035
    86        -0.0088734367
    87        -0.0098608004
    88        -0.0108477185
    89        -0.0118343316
    90        -0.0128197339
    91        -0.0137899545
    92        -0.0147678643
    93        -0.0157391671
    94        -0.0166503977
    95        -0.0175589031
    96        -0.0183464539
    97        -0.0190055305
    98        -0.0193295438
    99         0.0022770886
   100         0.0023260899
   101        -0.0115760249
   102        -0.0101915602
   103        -0.0085574697
   104        -0.0074016402
   105        -0.0061128439
   106        -0.0035317315
   107        -0.0048224612
   108         0.0035679257
   109         0.0048586491
   110         0.0061489513
   111         0.0074374524
   112         0.0087214012
   113         0.0101743296
   114         0.0112819718
   115         0.0009862162
   116         0.0010087135
   117        -0.0000501325
   118        -0.0118104762
   119         0.0101275130
   120         0.0121752803
   121         0.0115086999
   122         0.0081897684
   123         0.0069317805
   124         0.0042986880
   125         0.0056157905
   126        -0.0029406867
   127        -0.0042570605
   128        -0.0055732418
   129        -0.0068890394
   130        -0.0083130446
   131        -0.0098075898
   132        -0.0104073793
   133        -0.0003046751
   134        -0.0016242532
   135        -0.0015955650
   136        -0.0003077945
   137         0.0002204748
   138         0.0119216370
   139        -0.0119769638
   140        -0.0122357336
   141         0.0076597942
   142         0.0051038707
   143        -0.0035942000
   144         0.0001543220
   145        -0.0073016861
   146        -0.0034250752
   147         0.0037246877
   148         0.0001802752
   149        -0.0068327133
   150        -0.0032692267
   151        -0.0051599147
   152         0.0008902646
   153        -0.0011089647
   154        -0.0058724898
   155        -0.0037041926
   156         0.0026232487
   157         0.0008478412
   158         0.0058446146
   159         0.0089247772
   160         0.0073875838
   161         0.0048438701
   162        -0.0038549037
   163        -0.0000952702
   164        -0.0075506782
   165        -0.0036646644
   166         0.0034846591
   167        -0.0000489038
   168        -0.0070604632
   169        -0.0034893930
   170        -0.0051994203
   171         0.0006823474
   172        -0.0012995954
   173        -0.0009501259
   174        -0.0002840682
   175         0.0000189028
   176         0.0000395232
   177         0.0000000000
   178         0.0000790265
   179        -0.0022409350
   180        -0.0008900751
   181        -0.0011927487
   182         0.0001574165
   183         0.0001719692
   184         0.0001184426
   185        -0.0015004609
   186         0.0002013828
   187         0.0017809954
   188        -0.0018063308
   189         0.0002562809
   190        -0.0021067660
   191         0.0002934764
   192        -0.0024095552
   193         0.0003299462
   194        -0.0027128820
   195         0.0003663380
   196        -0.0030161950
   197         0.0004024683
   198        -0.0033190579
   199         0.0003897491
   200        -0.0036618227
   201         0.0003218641
   202        -0.0000395281
   203         0.0006248206
   204        -0.0000790574
   205         0.0009277740
   206        -0.0001185867
   207         0.0012307237
   208        -0.0001581155
   209         0.0015336678
   210        -0.0001976432
   211         0.0018366021
   212        -0.0002371681
   213         0.0021395189
   214        -0.0002766861
   215         0.0024424048
   216        -0.0003161842
   217         0.0027452377
   218        -0.0003556182
   219         0.0030479792
   220        -0.0003948250
   221         0.0033505069
   222        -0.0004333636
   223         0.0036521764
   224        -0.0002990420
   225        -0.0009660268
   226        -0.0022824740
   227        -0.0028869342
   228         0.0003407729
   229        -0.0005870608
   230         0.0106928690
   231         0.0110185871
   232         0.0048577546
   233         0.0049575912
   234        -0.0041787192
   235         0.0076737187
   236        -0.0062311667
   237        -0.0089685399
   238        -0.0043548641
   239         0.0016316551
   240        -0.0035988858
   241        -0.0075991460
   242        -0.0080462939
   243         0.0062737900
   244         0.0055038931
   245        -0.0049151906
   246         0.0080795583
   247         0.0093971999
   248         0.0044462901
   249         0.0029225141
   250         0.0108530284
   251         0.0046492487
   252         0.0067936222
   253        -0.0054677389
   254         0.0042133116
   255        -0.0067575846
   256         0.0016670718
   257         0.0109329743
   258         0.0003504477
   259         0.0040853341
   260        -0.0038441795
   261         0.0042332975
   262         0.0045413485
   263        -0.0072020233
   264        -0.0074715769
   265         0.0128795961
   266         0.0126140971
   267         0.0037737061
   268         0.0030084817
   269        -0.0043073003
   270         0.0003167550
   271         0.0024625911
   272         0.0028113577
   273         0.0031600845
   274         0.0035086068
   275         0.0010671033
   276         0.0038502277
   277        -0.0017238307
   278        -0.0020726855
   279        -0.0024215188
   280        -0.0027703104
   281        -0.0031190177
   282        -0.0013749646
   283        -0.0034675318
   284        -0.0038153245
   285        -0.0041311321
   286         0.0007183007
   287        -0.0010260921
   288        -0.0006772159
   289         0.0003694264
   290        -0.0003283369
   291         0.0000205443
   292         0.0042031930
   293         0.0014150747
   294         0.0021143889
   295        -0.0000360856
   296        -0.0104960053
   297        -0.0105092035
   298         0.0061176123
   299        -0.0136498384
   300        -0.0138960772
   301         0.0062789151
   302         0.0060302710
   303         0.0062890110
   304        -0.0126179119
   305        -0.0128418438
   306         0.0038862943
   307         0.0062949417
   308         0.0060666127
   309        -0.0062289096
   310        -0.0096782253
   311         0.0001632069
   312         0.0100851013
   313         0.0136342552
   314         0.0133591627
   315        -0.0133637322
   316        -0.0136322179
$EndNodeData
